<ttFont>
          <CharString index="0">
            -76 callsubr
            40 -100 callgsubr
            return
          </CharString>
          <CharString index="1">
            -50 callsubr
            -93 callsubr
            48 39 -39 -48 hvcurveto
            -77 -61 callsubr
            return
          </CharString>
          <CharString index="2">
            -62 callsubr
            -61 callgsubr
            return
          </CharString>
          <CharString index="3">
            vlineto
            95 -77 77 -95 vhcurveto
            return
          </CharString>
          <CharString index="4">
            -101 callgsubr
            endchar
          </CharString>
          <CharString index="5">
            258 447 rmoveto
            22 vlineto
            26 -14 26 -18 16 vhcurveto
            21 16 11 24 29 vvcurveto
            11 -63 callgsubr
            -17 vlineto
            48 -7 rlineto
            24 -64 callgsubr
            -16 vlineto
            -21 callsubr
            -31 -47 31 hlineto
            23 18 -18 -23 hvcurveto
            -26 vlineto
            -55 callgsubr
            24 vlineto
            -48 -7 rlineto
            -17 -64 callsubr
            return
          </CharString>
          <CharString index="6">
            40 31 -56 62 hhcurveto
            59 30 47 58 hvcurveto
            -46 hlineto
            -33 -15 -23 -27 vhcurveto
            endchar
          </CharString>
          <CharString index="7">
            -104 callsubr
            -89 callsubr
            return
          </CharString>
          <CharString index="8">
            -53 callsubr
            264 hmoveto
            -82 callsubr
          </CharString>
          <CharString index="9">
            vlineto
            81 -66 66 -81 vhcurveto
            return
          </CharString>
          <CharString index="10">
            -94 callgsubr
            -376 vlineto
            -95 77 -46 callsubr
            return
          </CharString>
          <CharString index="11">
            389 hmoveto
            65 hlineto
            -206 700 rlineto
            -33 hlineto
            -205 -700 -44 callsubr
            -113 383 -56 callsubr
            return
          </CharString>
          <CharString index="12">
            -105 callsubr
            -28 -31 callgsubr
            18 -104 callsubr
            return
          </CharString>
          <CharString index="13">
            464 162 rmoveto
            376 -100 callsubr
            return
          </CharString>
          <CharString index="14">
            -35 hlineto
            -38 callsubr
            60 -10 rlineto
            18 vlineto
            -76 callsubr
            35 hlineto
            return
          </CharString>
          <CharString index="15">
            -55 callsubr
            376 vlineto
            -87 callsubr
            return
          </CharString>
          <CharString index="16">
            rmoveto
            -57 46 -46 57 57 47 46 57 -40 callsubr
            50 hmoveto
            -79 callgsubr
          </CharString>
          <CharString index="17">
            -81 -66 -66 -81 hvcurveto
            return
          </CharString>
          <CharString index="18">
            -50 -97 callsubr
            return
          </CharString>
          <CharString index="19">
            75 -75 -75 vlineto
            return
          </CharString>
          <CharString index="20">
            -91 callgsubr
            44 -105 callsubr
            return
          </CharString>
          <CharString index="21">
            rmoveto
            170 -63 callgsubr
            -170 -64 callsubr
            -48 hmoveto
            -55 callgsubr
            170 -64 callgsubr
            return
          </CharString>
          <CharString index="22">
            -107 callgsubr
            366 -60 -363 vlineto
            -83 callgsubr
            37 27 hvcurveto
            return
          </CharString>
          <CharString index="23">
            81 66 66 81 hvcurveto
            return
          </CharString>
          <CharString index="24">
            hlineto
            -96 callgsubr
            return
          </CharString>
          <CharString index="25">
            -88 callsubr
            endchar
          </CharString>
          <CharString index="26">
            -77 callsubr
            endchar
          </CharString>
          <CharString index="27">
            62 50 50 62 return
          </CharString>
          <CharString index="28">
            hmoveto
            60 -331 260 268 60 -268 260 331 60 -394 return
          </CharString>
          <CharString index="29">
            156 -105 callsubr
            return
          </CharString>
          <CharString index="30">
            rmoveto
            -75 -215 25 hlineto
            return
          </CharString>
          <CharString index="31">
            48 39 39 48 vhcurveto
            return
          </CharString>
          <CharString index="32">
            474 -79 callsubr
            -20 callgsubr
            return
          </CharString>
          <CharString index="33">
            363 -76 callgsubr
            -700 60 366 vlineto
            -68 callgsubr
            endchar
          </CharString>
          <CharString index="34">
            394 500 10 callgsubr
            -130 -379 -27 callgsubr
            -130 379 rlineto
            -60 hlineto
            return
          </CharString>
          <CharString index="35">
            399 700 rlineto
            -56 hlineto
            -399 15 callgsubr
            return
          </CharString>
          <CharString index="36">
            -81 66 -38 callgsubr
            15 hlineto
            return
          </CharString>
          <CharString index="37">
            -42 callgsubr
            hintmask 01100000
            -87 callgsubr
            hintmask 10100000
            -101 callsubr
          </CharString>
          <CharString index="38">
            -107 callgsubr
            -9 callsubr
            return
          </CharString>
          <CharString index="39">
            -10 callgsubr
            190 16 callgsubr
            394 -7 callsubr
            226 -76 callgsubr
            return
          </CharString>
          <CharString index="40">
            rmoveto
            184 187 -184 187 -20 -20 122 -167 -122 -167 rlineto
            return
          </CharString>
          <CharString index="41">
            50 62 hvcurveto
            -54 callgsubr
            return
          </CharString>
          <CharString index="42">
            -13 vlineto
            -241 331 92 -193 vvcurveto
            -21 vlineto
            -62 -55 -50 -62 vhcurveto
            -44 hlineto
            return
          </CharString>
          <CharString index="43">
            vlineto
            -47 38 -40 49 vhcurveto
            14 hlineto
            49 38 40 47 hvcurveto
            return
          </CharString>
          <CharString index="44">
            vlineto
            -95 77 -46 callsubr
            30 -83 callsubr
            return
          </CharString>
          <CharString index="45">
            hlineto
            62 50 return
          </CharString>
          <CharString index="46">
            -127 vlineto
            -38 callsubr
            return
          </CharString>
          <CharString index="47">
            hstemhm
            60 -70 callgsubr
            return
          </CharString>
          <CharString index="48">
            rmoveto
            21 19 -15 -30 -95 -147 -115 0 hvcurveto
            -38 198 47 -117 vlineto
            0 114 114 87 vvcurveto
            56 -38 36 -49 vhcurveto
            -14 hlineto
            return
          </CharString>
          <CharString index="49">
            -73 callsubr
            162 -457 -89 -243 rlineto
            58 hlineto
            return
          </CharString>
          <CharString index="50">
            -40 -66 callgsubr
            40 hlineto
            return
          </CharString>
          <CharString index="51">
            rmoveto
            2 26 2 -26 92 -323 rlineto
            -188 hlineto
            return
          </CharString>
          <CharString index="52">
            -102 callgsubr
            -44 -97 callgsubr
            return
          </CharString>
          <CharString index="53">
            -49 callgsubr
            145 return
          </CharString>
          <CharString index="54">
            rmoveto
            -88 callsubr
            return
          </CharString>
          <CharString index="55">
            -60 hlineto
            -100 -120 rlineto
            60 hlineto
            70 80 70 -80 rlineto
            60 hlineto
            endchar
          </CharString>
          <CharString index="56">
            hmoveto
            -14 callsubr
            return
          </CharString>
          <CharString index="57">
            394 -51 callsubr
            return
          </CharString>
          <CharString index="58">
            21 -42 callsubr
            return
          </CharString>
          <CharString index="59">
            -12 callgsubr
            80 41 -67 callsubr
            return
          </CharString>
          <CharString index="60">
            -83 callsubr
            -63 return
          </CharString>
          <CharString index="61">
            -77 95 vhcurveto
            return
          </CharString>
          <CharString index="62">
            -98 callsubr
            -15 hlineto
            -36 callsubr
            return
          </CharString>
          <CharString index="63">
            rlineto
            65 hlineto
            46 163 rlineto
            222 hlineto
            return
          </CharString>
          <CharString index="64">
            500 -60 -500 vlineto
            return
          </CharString>
          <CharString index="65">
            -21 -17 callgsubr
            return
          </CharString>
          <CharString index="66">
            vlineto
            66 -37 57 -54 29 vhcurveto
            54 29 37 57 66 vvcurveto
            return
          </CharString>
          <CharString index="67">
            57 -47 47 -57 -57 -46 -47 -57 vhcurveto
            return
          </CharString>
          <CharString index="68">
            143 hmoveto
            700 -63 -20 callgsubr
            return
          </CharString>
          <CharString index="69">
            -90 callsubr
            -5 vlineto
            return
          </CharString>
          <CharString index="70">
            -33 51 rlineto
            -20 -500 60 return
          </CharString>
          <CharString index="71">
            -49 -43 -24 -37 -27 hvcurveto
            return
          </CharString>
          <CharString index="72">
            -279 506 -54 callsubr
            700 -81 callsubr
          </CharString>
          <CharString index="73">
            -199 601 75 hstem
            100 75 vstem
            175 601 rmoveto
            -82 callsubr
          </CharString>
          <CharString index="74">
            hhcurveto
            40 -28 callgsubr
            return
          </CharString>
          <CharString index="75">
            70 -75 callgsubr
            return
          </CharString>
          <CharString index="76">
            145 -32 callgsubr
            -620 rmoveto
            -43 callsubr
            return
          </CharString>
          <CharString index="77">
            -77 callsubr
            170 215 -81 callsubr
          </CharString>
          <CharString index="78">
            -37 callsubr
            366 hlineto
            return
          </CharString>
          <CharString index="79">
            700 -60 -20 callgsubr
            return
          </CharString>
          <CharString index="80">
            162 rmoveto
            return
          </CharString>
          <CharString index="81">
            -251 -22 callgsubr
            80 63 vstem
            143 -200 rmoveto
            return
          </CharString>
          <CharString index="82">
            12 callgsubr
            -10 -53 callgsubr
            return
          </CharString>
          <CharString index="83">
            75 hstem
            70 75 vstem
            145 return
          </CharString>
          <CharString index="84">
            60 260 9 callsubr
            return
          </CharString>
          <CharString index="85">
            -60 callgsubr
            80 return
          </CharString>
          <CharString index="86">
            -22 -18 -18 -23 vhcurveto
            return
          </CharString>
          <CharString index="87">
            -159 -4 callsubr
            return
          </CharString>
          <CharString index="88">
            394 hmoveto
            500 -60 -366 vlineto
            return
          </CharString>
          <CharString index="89">
            248 63 vstem
            return
          </CharString>
          <CharString index="90">
            267 443 rmoveto
            67 -35 vlineto
            -36 callsubr
            return
          </CharString>
          <CharString index="91">
            -22 callsubr
            63 return
          </CharString>
          <CharString index="92">
            -20 121 3 callsubr
            return
          </CharString>
          <CharString index="93">
            363 -98 callsubr
            return
          </CharString>
          <CharString index="94">
            -179 -42 callsubr
            return
          </CharString>
          <CharString index="95">
            21 -21 500 -20 return
          </CharString>
          <CharString index="96">
            rlineto
            -40 134 rmoveto
            return
          </CharString>
          <CharString index="97">
            -10 20 callsubr
            return
          </CharString>
          <CharString index="98">
            232 vlineto
            return
          </CharString>
          <CharString index="99">
            rmoveto
            -25 -21 -22 -26 vhcurveto
            -24 hlineto
            -26 -21 22 25 hvcurveto
            return
          </CharString>
          <CharString index="100">
            137 rmoveto
            return
          </CharString>
          <CharString index="101">
            195 endchar
          </CharString>
          <CharString index="102">
            601 -50 callgsubr
            hstem
            return
          </CharString>
          <CharString index="103">
            506 -49 callgsubr
            return
          </CharString>
          <CharString index="104">
            193 endchar
          </CharString>
          <CharString index="105">
            -94 -200 54 411 54 411 54 hstemhm
            return
          </CharString>
          <CharString index="106">
            49 109 49 hstem
            100 50 107 50 vstem
            100 return
          </CharString>
          <CharString index="107">
            hhcurveto
            -40 -77 callgsubr
            -226 vlineto
            return
          </CharString>
          <CharString index="108">
            rmoveto
            -9 callsubr
            -76 callsubr
            40 hlineto
            return
          </CharString>
          <CharString index="109">
            rmoveto
            45 hlineto
            -80 120 rlineto
            -100 hlineto
            endchar
          </CharString>
          <CharString index="110">
            -50 callgsubr
            hstemhm
            return
          </CharString>
          <CharString index="111">
            65 60 209 60 return
          </CharString>
          <CharString index="112">
            17 callsubr
            19 callgsubr
            return
          </CharString>
          <CharString index="113">
            75 hstem
            100 -9 callgsubr
            vstem
            175 return
          </CharString>
          <CharString index="114">
            vstem
            140 hmoveto
            -28 callsubr
            return
          </CharString>
          <CharString index="115">
            rmoveto
            75 215 -25 hlineto
            return
          </CharString>
          <CharString index="116">
            20 callgsubr
            60 return
          </CharString>
          <CharString index="117">
            306 57 hstem
            50 363 rmoveto
            -57 return
          </CharString>
          <CharString index="118">
            -13 callgsubr
            477 -20 return
          </CharString>
          <CharString index="119">
            48 vhcurveto
            35 -100 callgsubr
            return
          </CharString>
          <CharString index="120">
            136 113 -21 517 -20 hstem
            return
          </CharString>
          <CharString index="121">
            rmoveto
            210 38 -210 hlineto
            endchar
          </CharString>
          <CharString index="122">
            60 -47 callgsubr
            return
          </CharString>
          <CharString index="123">
            -65 -47 45 67 hvcurveto
            181 vlineto
            return
          </CharString>
          <CharString index="124">
            21 -21 453 57 return
          </CharString>
          <CharString index="125">
            hmoveto
            -88 callsubr
            return
          </CharString>
          <CharString index="126">
            60 hstem
            80 63 return
          </CharString>
          <CharString index="127">
            57 -26 -21 return
          </CharString>
        <CharString name=".notdef">
          526 endchar
        </CharString>
        <CharString name=".null">
          -474 endchar
        </CharString>
        <CharString name="A">
          11 callsubr
          hstem
          -96 callsubr
          endchar
        </CharString>
        <CharString name="AE">
          389 0 60 103 60 97 9 callsubr
          hstem
          429 63 vstem
          823 -79 callsubr
          vlineto
          -419 15 callgsubr
          65 hlineto
          97 163 rlineto
          257 -163 hlineto
          -221 223 rmoveto
          211 351 10 26 rlineto
          -377 vlineto
          endchar
        </CharString>
        <CharString name="Aacute">
          11 callsubr
          121 -50 callgsubr
          hstemhm
          hintmask 11100000
          -96 callsubr
          hintmask 00011000
          204 677 -103 callsubr
        </CharString>
        <CharString name="Acircumflex">
          -10 2 200 65 -6 callsubr
        </CharString>
        <CharString name="Adieresis">
          -10 0 200 65 200 endchar
        </CharString>
        <CharString name="Agrave">
          -10 22 200 65 -3 callsubr
        </CharString>
        <CharString name="Aring">
          -13 callgsubr
          478 -20 129 49 hstem
          129 50 107 50 vstem
          129 755 rmoveto
          -47 30 -39 43 -13 vhcurveto
          -192 -656 -44 callsubr
          46 -163 rlineto
          65 hlineto
          -193 656 rlineto
          43 12 32 40 47 vvcurveto
          -40 callsubr
          101 -209 -56 callsubr
          41 532 rmoveto
          -79 callgsubr
        </CharString>
        <CharString name="Atilde">
          11 callsubr
          115 -36 callgsubr
          hintmask 11100000
          -96 callsubr
          hintmask 00010100
          161 621 -42 callgsubr
          hintmask 00001100
          -87 callgsubr
          hintmask 00010100
          -101 callsubr
        </CharString>
        <CharString name="B">
          40 0 60 279 60 241 60 -51 callgsubr
          172 rmoveto
          45 -41 callsubr
          7 -71 callgsubr
          222 -69 callgsubr
          279 -78 callsubr
          284 vmoveto
          -37 callgsubr
          241 -24 callgsubr
        </CharString>
        <CharString name="C">
          50 -10 60 600 15 callsubr
          464 -27 callsubr
          28 vlineto
          -63 10 rlineto
          -38 vlineto
          -82 callgsubr
          50 -83 callsubr
          endchar
        </CharString>
        <CharString name="CR">
          -244 endchar
        </CharString>
        <CharString name="Ccedilla">
          50 51 0 67 203 endchar
        </CharString>
        <CharString name="D">
          70 0 60 580 60 -51 callgsubr
          172 rmoveto
          356 -71 callgsubr
          222 -69 callgsubr
          580 -24 callgsubr
        </CharString>
        <CharString name="E">
          40 0 -23 callsubr
          hstem
          80 63 cntrmask 11100000
          -75 callsubr
          endchar
        </CharString>
        <CharString name="Eacute">
          40 0 -23 callsubr
          101 3 callsubr
          80 63 hintmask 11100100
          -75 callsubr
          hintmask 00011000
          307 900 -103 callsubr
        </CharString>
        <CharString name="Ecircumflex">
          40 47 200 69 -6 callsubr
        </CharString>
        <CharString name="Edieresis">
          40 0 -23 callsubr
          101 75 hstemhm
          80 63 -18 -9 callgsubr
          hintmask 11101000
          -75 callsubr
          hintmask 00010110
          120 -72 callgsubr
        </CharString>
        <CharString name="Egrave">
          40 47 200 69 -3 callsubr
        </CharString>
        <CharString name="Eth">
          82 0 60 225 50 305 60 hstem
          92 -65 callgsubr
          30 335 rmoveto
          -50 62 -285 222 vlineto
          -96 callgsubr
          356 -104 callsubr
          -222 -365 hlineto
          331 -163 rmoveto
          -37 callgsubr
          225 117 50 -117 305 -24 callgsubr
        </CharString>
        <CharString name="Euro">
          90 -10 60 220 50 60 50 220 60 hstem
          110 -65 callgsubr
          311 270 rmoveto
          29 50 rlineto
          -167 60 202 hlineto
          29 50 rlineto
          -231 108 hlineto
          62 50 50 62 vhcurveto
          44 -95 callsubr
          -50 -94 callgsubr
          -108 -70 -50 70 -60 -70 -50 70 -108 vlineto
          -95 77 -46 callsubr
          50 -30 callgsubr
          -44 hlineto
          -62 -50 50 62 hvcurveto
          108 vlineto
          endchar
        </CharString>
        <CharString name="F">
          20 21 -21 320 60 260 19 callsubr
          vstem
          474 640 rmoveto
          60 -394 -700 63 320 268 60 -268 260 vlineto
          endchar
        </CharString>
        <CharString name="G">
          60 -10 60 -29 -21 308 60 282 60 9 callgsubr
          hintmask 10111100
          464 368 rmoveto
          -175 -60 112 -146 hlineto
          -82 callgsubr
          37 hlineto
          53 45 26 40 30 hvcurveto
          hintmask 01111100
          37 -56 rlineto
          20 hlineto
          endchar
        </CharString>
        <CharString name="H">
          80 21 -21 320 60 320 6 callgsubr
          hmoveto
          700 -63 -320 -268 320 -63 -700 63 320 268 -320 vlineto
          endchar
        </CharString>
        <CharString name="I">
          -251 -16 callsubr
          vstem
          -39 callsubr
          endchar
        </CharString>
        <CharString name="IJ">
          203 -10 60 -29 -42 callsubr
          hstemhm
          80 63 110 63 238 63 hintmask 01110000
          -39 callsubr
          hintmask 10101100
          537 -73 callgsubr
        </CharString>
        <CharString name="Iacute">
          -251 21 -21 700 -15 callsubr
          80 63 hintmask 11001000
          -39 callsubr
          hintmask 00110000
          142 900 -103 callsubr
        </CharString>
        <CharString name="Icircumflex">
          -251 -118 200 73 -6 callsubr
        </CharString>
        <CharString name="Idieresis">
          -251 21 -21 700 4 callgsubr
          -20 75 25 63 26 75 hintmask 11001000
          -39 callsubr
          hintmask 00110100
          -25 -72 callgsubr
        </CharString>
        <CharString name="Igrave">
          -251 -98 200 73 -3 callsubr
        </CharString>
        <CharString name="Itilde">
          -251 -143 200 73 196 endchar
        </CharString>
        <CharString name="J">
          -10 60 650 -20 hstem
          30 63 238 63 vstem
          394 -73 callgsubr
        </CharString>
        <CharString name="Jcircumflex">
          132 200 74 -6 callsubr
        </CharString>
        <CharString name="K">
          46 -16 callsubr
          vstem
          500 hmoveto
          -269 350 269 350 rlineto
          -78 hlineto
          -264 -350 264 -350 rlineto
          -279 hmoveto
          700 -63 -20 callgsubr
          endchar
        </CharString>
        <CharString name="L">
          -53 0 60 640 -20 hstem
          70 63 vstem
          401 hmoveto
          -18 callgsubr
          endchar
        </CharString>
        <CharString name="Ldotaccent">
          -63 0 20 callgsubr
          75 305 -20 hstem
          70 63 116 75 vstem
          401 hmoveto
          -18 callgsubr
          254 320 rmoveto
          -82 callsubr
        </CharString>
        <CharString name="Lslash">
          -63 0 60 189 -21 233 -20 259 -20 hstemhm
          70 63 hintmask 01100000
          8 285 rmoveto
          -57 vlineto
          311 176 rlineto
          57 vlineto
          hintmask 10011000
          82 -461 rmoveto
          -18 callgsubr
          endchar
        </CharString>
        <CharString name="M">
          180 -16 callsubr
          368 63 vstem
          574 hmoveto
          700 -33 vlineto
          -212 -574 -27 callgsubr
          -212 574 rlineto
          -33 -700 63 480 hlineto
          4 -30 164 -450 rlineto
          33 hlineto
          163 450 4 30 rlineto
          -480 vlineto
          endchar
        </CharString>
        <CharString name="N">
          80 21 -21 700 6 callgsubr
          hmoveto
          700 -63 -540 vlineto
          -6 30 -292 510 rlineto
          -33 -700 63 540 hlineto
          6 -30 292 -510 rlineto
          endchar
        </CharString>
        <CharString name="Nacute">
          80 127 200 78 194 endchar
        </CharString>
        <CharString name="Ntilde">
          80 22 200 78 196 endchar
        </CharString>
        <CharString name="O">
          60 -10 60 600 15 callsubr
          -94 callsubr
          50 hlineto
          95 77 77 95 hvcurveto
          -63 hmoveto
          -92 callsubr
          endchar
        </CharString>
        <CharString name="OE">
          311 -10 60 -50 50 -50 -23 callsubr
          -50 50 -50 60 9 callgsubr
          hintmask 1001100110000000
          464 -27 callsubr
          158 218 60 -218 158 vlineto
          38 -13 35 -21 29 vhcurveto
          315 60 -396 hlineto
          hintmask 1001001110000000
          6 -18 -19 4 -20 hhcurveto
          -89 callsubr
          50 hlineto
          hintmask 0101100110000000
          20 19 4 6 18 hvcurveto
          396 hlineto
          hintmask 0011100110000000
          60 -315 vlineto
          21 28 13 36 38 vvcurveto
          -63 hmoveto
          hintmask 1001010110000000
          -92 callsubr
          endchar
        </CharString>
        <CharString name="Oacute">
          60 -10 60 600 60 91 7 callgsubr
          hintmask 11001100
          -94 callsubr
          50 hlineto
          95 77 77 95 hvcurveto
          -63 hmoveto
          -92 callsubr
          hintmask 00110000
          -14 362 -103 callsubr
        </CharString>
        <CharString name="Ocircumflex">
          60 37 200 79 -6 callsubr
        </CharString>
        <CharString name="Odieresis">
          60 35 200 79 200 endchar
        </CharString>
        <CharString name="Ograve">
          60 67 200 79 -3 callsubr
        </CharString>
        <CharString name="Oslash">
          60 -10 60 -59 -21 680 60 20 -20 9 callgsubr
          hintmask 01101100
          103 -30 rmoveto
          29 59 rlineto
          hintmask 10011100
          -25 30 38 -14 42 hhcurveto
          50 -83 callsubr
          5 callgsubr
          35 -11 32 -18 27 vhcurveto
          49 98 rlineto
          -53 hlineto
          -30 -59 rlineto
          24 -29 -39 15 -41 1 callgsubr
          -35 10 -33 18 -27 vhcurveto
          hintmask 01101100
          -48 -97 rlineto
          351 192 rmoveto
          hintmask 10101100
          -102 callgsubr
          -44 hlineto
          -34 -29 14 23 -21 hvcurveto
          238 473 rlineto
          1 -7 1 -8 -7 vvcurveto
          -268 -376 rmoveto
          17 callgsubr
          44 hlineto
          33 30 -14 -23 20 hvcurveto
          -237 -473 rlineto
          -2 7 0 7 8 vvcurveto
          endchar
        </CharString>
        <CharString name="Otilde">
          60 -10 60 600 60 85 49 -27 -21 55 49 9 callgsubr
          hintmask 11000110
          -94 callsubr
          50 hlineto
          95 77 77 95 hvcurveto
          -63 hmoveto
          -92 callsubr
          hintmask 00101000
          -68 306 -93 callgsubr
        </CharString>
        <CharString name="P">
          40 21 -21 269 60 311 60 -51 callgsubr
          441 rmoveto
          87 -71 callgsubr
          63 269 159 -69 callgsubr
          311 -24 callgsubr
        </CharString>
        <CharString name="Q">
          60 -133 -21 144 60 600 15 callsubr
          -94 callsubr
          64 -144 rlineto
          63 hlineto
          -64 144 rlineto
          89 7 70 74 91 vvcurveto
          -63 hmoveto
          -92 callsubr
          endchar
        </CharString>
        <CharString name="R">
          48 21 -89 callgsubr
          endchar
        </CharString>
        <CharString name="Racute">
          48 81 200 82 194 endchar
        </CharString>
        <CharString name="Rcaron">
          48 21 -21 299 60 281 60 101 7 callgsubr
          hintmask 11100110
          -103 callgsubr
          hintmask 00011000
          -20 372 -92 callgsubr
        </CharString>
        <CharString name="Rcommaaccent">
          48 -274 -21 316 -89 callgsubr
          -99 -608 -81 callsubr
        </CharString>
        <CharString name="S">
          45 -10 60 600 60 hstemhm
          60 63 -53 -75 callgsubr
          hintmask 11011000
          -88 callgsubr
          hintmask 11101000
          -62 -55 -66 callsubr
          82 -46 callsubr
          50 hlineto
          95 82 77 95 hvcurveto
          endchar
        </CharString>
        <CharString name="Scaron">
          50 -10 60 600 60 91 3 callsubr
          60 63 -53 -75 callgsubr
          hintmask 11000110
          -88 callgsubr
          hintmask 11001010
          -62 -55 -66 callsubr
          82 -46 callsubr
          50 hlineto
          95 82 77 95 hvcurveto
          hintmask 00110000
          -72 738 -92 callgsubr
        </CharString>
        <CharString name="T">
          -37 21 -21 640 60 hstem
          187 63 vstem
          417 640 rmoveto
          60 -397 -60 167 -640 63 640 vlineto
          endchar
        </CharString>
        <CharString name="Thorn">
          40 21 -21 161 60 281 60 138 6 callgsubr
          333 rmoveto
          57 -104 callsubr
          -159 138 -63 -700 63 161 159 hlineto
          95 77 77 95 hvcurveto
          -63 hmoveto
          -56 callgsubr
          endchar
        </CharString>
        <CharString name="U">
          60 -10 60 650 -20 -47 callgsubr
          464 -78 callgsubr
          -44 hlineto
          -62 -50 50 62 hvcurveto
          538 -63 -538 vlineto
          -95 77 -46 callsubr
          50 -83 callsubr
          endchar
        </CharString>
        <CharString name="Uacute">
          60 -10 60 650 -20 121 7 callgsubr
          hintmask 11001100
          464 -78 callgsubr
          -44 hlineto
          -62 -50 50 62 hvcurveto
          538 -63 -538 vlineto
          -95 77 -46 callsubr
          50 -83 callsubr
          hintmask 00110000
          -77 738 -103 callsubr
        </CharString>
        <CharString name="Ucircumflex">
          60 37 200 85 -6 callsubr
        </CharString>
        <CharString name="Udieresis">
          60 -10 60 650 4 callgsubr
          70 63 2 -9 callgsubr
          2 63 hintmask 11010010
          464 -78 callgsubr
          -44 hlineto
          -62 -50 50 62 hvcurveto
          538 -63 -538 vlineto
          -95 77 -46 callsubr
          50 -83 callsubr
          hintmask 00101100
          -254 639 -99 callsubr
        </CharString>
        <CharString name="Ugrave">
          60 47 200 85 -3 callsubr
        </CharString>
        <CharString name="V">
          -10 -60 callgsubr
          75 700 rmoveto
          -65 hlineto
          205 15 callgsubr
          33 hlineto
          206 700 rlineto
          -65 hlineto
          -155 -546 -27 callgsubr
          rlineto
          endchar
        </CharString>
        <CharString name="W">
          279 -60 callgsubr
          733 700 rmoveto
          -63 hlineto
          -137 -532 -27 callgsubr
          -135 532 rlineto
          -35 hlineto
          -135 -532 -27 callgsubr
          -137 532 rlineto
          -63 hlineto
          186 15 callgsubr
          33 hlineto
          135 527 3 27 2 -27 136 -527 rlineto
          33 hlineto
          endchar
        </CharString>
        <CharString name="X">
          10 -60 callgsubr
          454 hmoveto
          -178 360 168 340 rlineto
          -68 hlineto
          -134 -271 -134 271 rlineto
          -68 hlineto
          168 -340 -178 -360 rlineto
          68 hlineto
          144 291 144 -291 rlineto
          endchar
        </CharString>
        <CharString name="Y">
          -10 -60 callgsubr
          201 63 vstem
          444 700 rmoveto
          -8 callgsubr
          181 -366 rlineto
          -334 63 335 vlineto
          endchar
        </CharString>
        <CharString name="Yacute">
          -10 82 200 89 194 endchar
        </CharString>
        <CharString name="Ydieresis">
          -10 0 200 89 200 endchar
        </CharString>
        <CharString name="Z">
          0 0 60 580 60 hstem
          434 hmoveto
          60 -312 vlineto
          312 610 rlineto
          30 -384 -60 302 vlineto
          -312 -610 rlineto
          -30 vlineto
          endchar
        </CharString>
        <CharString name="Zcaron">
          0 7 200 90 207 endchar
        </CharString>
        <CharString name="a">
          -43 callgsubr
          hstemhm
          4 callsubr
          hintmask 01111100
          -106 callsubr
          hintmask 10111100
          -62 callgsubr
          hintmask 01111100
          -4 callgsubr
          hintmask 10111100
          -107 callgsubr
          21 vlineto
          -76 callsubr
          127 hlineto
          endchar
        </CharString>
        <CharString name="aacute">
          -43 callgsubr
          91 3 callsubr
          4 callsubr
          hintmask 01110011
          -106 callsubr
          hintmask 10110011
          -62 callgsubr
          hintmask 01110011
          -4 callgsubr
          hintmask 10110011
          -107 callgsubr
          21 vlineto
          -76 callsubr
          127 hlineto
          hintmask 00001100
          3 458 -103 callsubr
        </CharString>
        <CharString name="acircumflex">
          7 0 97 -6 callsubr
        </CharString>
        <CharString name="acute">
          -94 -5 callsubr
          280 -58 callgsubr
        </CharString>
        <CharString name="acute.cap">
          -94 -21 callgsubr
          280 900 -103 callsubr
        </CharString>
        <CharString name="adieresis">
          5 0 97 200 endchar
        </CharString>
        <CharString name="ae">
          254 -10 57 198 44 164 57 hstem
          4 callsubr
          214 60 vstem
          668 -105 callgsubr
          -48 -42 -23 -36 -27 hvcurveto
          36 -27 -43 23 -47 hhcurveto
          -93 callsubr
          47 38 -38 -46 2 hvcurveto
          -80 -61 callsubr
          -71 callsubr
          46 48 17 58 36 hvcurveto
          -45 25 49 -30 55 -33 callsubr
          -334 -3 rmoveto
          -107 callgsubr
          21 vlineto
          -76 callsubr
          127 hlineto
          274 50 rmoveto
          -214 77 hlineto
          46 1 39 38 47 hhcurveto
          40 -100 callgsubr
          endchar
        </CharString>
        <CharString name="agrave">
          17 0 97 -3 callsubr
        </CharString>
        <CharString name="ampersand">
          147 -10 60 273 59 268 60 hstem
          70 63 -18 callsubr
          542 -10 rmoveto
          9 60 rlineto
          -15 hlineto
          -60 -30 46 59 -2 hvcurveto
          7 vlineto
          161 97 60 -97 73 vlineto
          -63 -10 rlineto
          -64 -136 vlineto
          -62 -50 50 62 hvcurveto
          44 -86 callgsubr
          24 -105 callsubr
          -15 -31 callgsubr
          5 -104 callsubr
          -30 -94 callgsubr
          -34 vlineto
          -66 37 -57 54 -29 vhcurveto
          -54 -29 -37 -57 -66 vvcurveto
          -38 vlineto
          -95 77 -46 callsubr
          30 hlineto
          55 50 26 41 32 hvcurveto
          -41 25 43 -26 56 hhcurveto
          -264 60 rmoveto
          -24 -97 callgsubr
          48 -86 callgsubr
          136 -160 hlineto
          -5 vlineto
          -60 -3 -49 -47 -60 hhcurveto
          endchar
        </CharString>
        <CharString name="aring">
          -43 callgsubr
          50 49 109 49 hstemhm
          65 60 1 50 107 50 1 60 hintmask 0111111111000000
          -106 callsubr
          hintmask 1011111111000000
          -62 callgsubr
          hintmask 0111111111000000
          -4 callgsubr
          hintmask 1011111111000000
          -107 callgsubr
          21 vlineto
          -76 callsubr
          127 hlineto
          -208 421 -91 callsubr
        </CharString>
        <CharString name="asciicircum">
          65 400 -21 321 -20 hstem
          303 700 rmoveto
          -67 hlineto
          -176 -321 rlineto
          67 hlineto
          142 263 143 -263 rlineto
          67 hlineto
          endchar
        </CharString>
        <CharString name="asciitilde">
          7 240 55 -33 -21 71 55 -1 -20 hstemhm
          hintmask 10100000
          322 295 rmoveto
          -50 -36 72 -76 hhcurveto
          hintmask 01100000
          -73 -37 -56 -70 hvcurveto
          52 hlineto
          41 22 30 35 vhcurveto
          hintmask 10010000
          50 36 -72 76 hhcurveto
          74 36 56 70 hvcurveto
          -52 hlineto
          -40 -21 -31 -36 vhcurveto
          endchar
        </CharString>
        <CharString name="asterisk">
          11 356 -21 365 -20 hstem
          214 56 vstem
          326 335 rmoveto
          58 42 -108 122 159 36 -22 67 -150 -64 15 162 rlineto
          -71 hlineto
          15 -162 -150 64 -22 -67 159 -36 -108 -122 58 -42 84 140 rlineto
          endchar
        </CharString>
        <CharString name="at">
          525 -210 58 127 54 -39 -10 callgsubr
          -10 -20 172 58 hstemhm
          70 62 735 62 hintmask 11001111
          689 500 rmoveto
          -20 hlineto
          -41 -51 rlineto
          hintmask 10110111
          37 -21 -40 24 -49 hhcurveto
          -15 hlineto
          -80 -77 -66 -81 -11 hvcurveto
          -31 -226 rlineto
          -1 -7 0 -7 -7 vvcurveto
          -71 53 -55 74 vhcurveto
          15 hlineto
          49 46 24 37 33 hvcurveto
          hintmask 11001111
          -43 20 34 -33 71 hhcurveto
          156 75 192 158 220 -140 165 -230 -275 -214 -245 -286 -221 129 -168 230 65 80 17 38 63 hvcurveto
          -20 46 rlineto
          -22 -38 -69 -21 -73 hhcurveto
          -200 -105 147 192 251 179 214 240 201 115 -143 -192 -167 -78 -121 -79 -54 -28 30 65 9 hvcurveto
          -241 242 rmoveto
          hintmask 10110111
          48 7 44 39 48 hhcurveto
          40 hlineto
          44 32 -32 -42 -4 0 -5 -1 -4 hvcurveto
          -33 -232 rlineto
          -48 -7 -44 -39 -48 hhcurveto
          -40 hlineto
          -44 -32 32 43 hvcurveto
          4 1 4 4 vvcurveto
          endchar
        </CharString>
        <CharString name="atilde">
          -43 callgsubr
          85 -36 callgsubr
          4 callsubr
          hintmask 0111000110000000
          -106 callsubr
          hintmask 1011000110000000
          -62 callgsubr
          hintmask 0111000110000000
          -4 callgsubr
          hintmask 1011000110000000
          -107 callgsubr
          21 vlineto
          -76 callsubr
          127 hlineto
          hintmask 0000101000000000
          -40 402 -42 callgsubr
          hintmask 0000011000000000
          -87 callgsubr
          hintmask 0000101000000000
          -101 callsubr
        </CharString>
        <CharString name="b">
          -10 -68 callsubr
          -563 vlineto
          -81 66 -38 callgsubr
          40 -28 callgsubr
          -60 -3 rmoveto
          -106 callgsubr
          endchar
        </CharString>
        <CharString name="backslash">
          -92 -39 -21 820 -20 hstem
          362 -60 rmoveto
          -279 820 rlineto
          -63 hlineto
          279 -820 rlineto
          endchar
        </CharString>
        <CharString name="bar">
          -26 callsubr
          984 -63 -984 vlineto
          endchar
        </CharString>
        <CharString name="braceleft">
          -2 callsubr
          163 60 -60 177 cntrmask 11100000
          hintmask 11101000
          163 -28 rmoveto
          -100 74 -72 98 vhcurveto
          5 54 -5 hlineto
          hintmask 11110000
          16 callsubr
          63 -30 52 -46 30 vhcurveto
          46 29 30 53 63 vvcurveto
          181 vlineto
          67 47 45 65 vhcurveto
          hintmask 11101000
          5 54 -5 hlineto
          -98 -74 -72 -100 hvcurveto
          -181 vlineto
          -66 -45 -44 -62 -2 vhcurveto
          -5 hlineto
          -11 -54 11 hlineto
          65 47 -45 -67 hvcurveto
          endchar
        </CharString>
        <CharString name="braceright">
          -2 callsubr
          40 177 -60 60 cntrmask 11100000
          hintmask 11110000
          217 153 rmoveto
          65 44 45 63 2 vhcurveto
          5 hlineto
          11 54 -11 hlineto
          16 callsubr
          100 -74 72 -98 vhcurveto
          -5 -54 5 hlineto
          hintmask 11101000
          65 47 -45 -67 hvcurveto
          -181 vlineto
          -63 29 -53 47 -29 vhcurveto
          -47 -30 -29 -52 -63 vvcurveto
          -181 vlineto
          -67 -47 -45 -65 vhcurveto
          hintmask 11110000
          -5 -54 5 hlineto
          98 74 72 100 hvcurveto
          endchar
        </CharString>
        <CharString name="bracketleft">
          14 callgsubr
          80 60 -60 179 hintmask 11010000
          259 -146 rmoveto
          hintmask 11100000
          -119 876 hlineto
          hintmask 11010000
          119 54 -179 -984 179 hlineto
          endchar
        </CharString>
        <CharString name="bracketright">
          14 callgsubr
          50 179 -60 60 hintmask 11100000
          50 -200 rmoveto
          179 984 -179 -54 hlineto
          hintmask 11010000
          119 -876 hlineto
          hintmask 11100000
          -119 hlineto
          endchar
        </CharString>
        <CharString name="breve">
          -9 593 46 -46 113 hstemhm
          hintmask 01000000
          100 706 rmoveto
          -74 58 -39 74 74 59 39 74 vhcurveto
          -46 hlineto
          hintmask 10000000
          -45 -39 -22 -48 vhcurveto
          hintmask 01000000
          -48 -38 22 45 hvcurveto
          endchar
        </CharString>
        <CharString name="brokenbar">
          -26 callsubr
          442 -63 -442 vlineto
          63 542 rmoveto
          442 -63 -442 vlineto
          endchar
        </CharString>
        <CharString name="bullet">
          -6 193 -21 348 -20 hstem
          60 346 rmoveto
          -96 78 -78 96 96 78 78 96 96 -78 78 -96 -96 -78 -78 -96 vhcurveto
          endchar
        </CharString>
        <CharString name="c">
          -10 -10 callgsubr
          hstem
          60 -70 callgsubr
          vstem
          394 137 rmoveto
          20 vlineto
          -60 10 rlineto
          -33 vlineto
          -106 callgsubr
          -33 vlineto
          60 10 rlineto
          20 -98 callsubr
          -57 callsubr
          81 66 66 81 hvcurveto
          endchar
        </CharString>
        <CharString name="caron">
          -14 -5 callsubr
          360 700 -92 callgsubr
        </CharString>
        <CharString name="caron.cap">
          -14 -21 callgsubr
          360 900 -92 callgsubr
        </CharString>
        <CharString name="ccedilla">
          16 0 99 203 endchar
        </CharString>
        <CharString name="cedilla">
          -112 -180 -21 201 -20 hstem
          216 46 vstem
          158 -73 rmoveto
          31 2 27 -16 -31 vvcurveto
          -25 -19 -14 -24 -25 -19 14 8 -6 vhcurveto
          -23 -35 rlineto
          -19 19 24 -12 29 hhcurveto
          52 38 31 50 43 -34 22 -12 5 hvcurveto
          29 50 rlineto
          -42 hlineto
          endchar
        </CharString>
        <CharString name="cent">
          11 -21 100 -10 callgsubr
          100 16 callgsubr
          143 -10 rmoveto
          32 103 rlineto
          -2 10 11 -1 11 -33 callsubr
          20 vlineto
          -60 10 rlineto
          -33 vlineto
          -104 callgsubr
          -5 -5 0 1 -5 hvcurveto
          116 380 rlineto
          16 -16 10 -22 -24 vvcurveto
          -33 vlineto
          60 10 rlineto
          20 vlineto
          52 -27 46 -41 26 vhcurveto
          38 123 rlineto
          -53 hlineto
          -32 -104 rlineto
          3 -10 -11 1 -11 0 callsubr
          -52 27 -46 41 -26 vhcurveto
          -38 -123 rlineto
          30 244 1 callsubr
          5 5 -1 -1 5 hvcurveto
          -116 -379 rlineto
          -16 16 -10 22 24 vvcurveto
          endchar
        </CharString>
        <CharString name="circumflex">
          -14 -5 callsubr
          260 700 rmoveto
          -52 callsubr
        </CharString>
        <CharString name="circumflex.cap">
          -14 -21 callgsubr
          260 900 rmoveto
          -52 callsubr
        </CharString>
        <CharString name="colon">
          -259 0 75 350 -24 callsubr
          425 -53 callsubr
          75 -425 rmoveto
          -82 callsubr
        </CharString>
        <CharString name="comma">
          -34 callgsubr
        </CharString>
        <CharString name="commaaccent">
          -259 -274 -54 callsubr
          -80 -81 callsubr
        </CharString>
        <CharString name="copyright">
          346 -10 52 83 54 342 54 83 52 hstem
          50 56 177 56 142 56 177 -90 callgsubr
          431 -113 rmoveto
          25 vlineto
          -56 9 rlineto
          -34 vlineto
          -32 -26 -26 -32 vhcurveto
          -26 hlineto
          -32 -26 26 32 hvcurveto
          226 vlineto
          32 26 26 32 vhcurveto
          26 hlineto
          32 26 -26 -32 hvcurveto
          -34 vlineto
          56 9 rlineto
          25 vlineto
          62 -50 50 -62 vhcurveto
          -30 hlineto
          -62 -50 -61 callgsubr
          -226 vlineto
          -62 50 -50 62 vhcurveto
          30 hlineto
          -80 callsubr
          hvcurveto
          endchar
        </CharString>
        <CharString name="currency">
          130 130 -21 35 58 299 58 33 -20 hstem
          95 60 295 60 vstem
          61 547 rmoveto
          73 -74 rlineto
          -25 -34 -14 -42 -46 vvcurveto
          -46 14 -43 26 -34 vhcurveto
          -75 -75 45 -44 74 74 rlineto
          -25 34 43 -14 46 hhcurveto
          46 42 14 25 34 hvcurveto
          75 -74 45 44 -75 75 rlineto
          26 34 15 43 46 vvcurveto
          46 -15 42 -25 35 vhcurveto
          73 73 -44 45 -74 -74 rlineto
          26 -34 -43 15 -46 hhcurveto
          -47 -42 -15 -26 -35 hvcurveto
          -73 74 rlineto
          50 -241 rmoveto
          83 64 67 83 83 65 -67 -83 -83 -65 -66 -83 -83 -64 66 83 vhcurveto
          endchar
        </CharString>
        <CharString name="d">
          -10 callsubr
          453 57 190 -53 callgsubr
          hintmask 01111100
          394 hmoveto
          700 -60 -242 vlineto
          32 -27 -40 20 -45 hhcurveto
          -15 -77 callgsubr
          -226 vlineto
          hintmask 10111100
          -83 callgsubr
          37 27 hvcurveto
          hintmask 01111100
          33 -51 -11 callsubr
          hintmask 10111100
          -106 callgsubr
          endchar
        </CharString>
        <CharString name="dagger">
          -22 -6 callgsubr
          638 60 202 -20 hstem
          192 67 -61 55 vstem
          40 504 rmoveto
          -71 vlineto
          154 11 9 -644 rlineto
          46 hlineto
          8 644 155 -11 rlineto
          71 vlineto
          -154 -11 3 207 rlineto
          -70 hlineto
          3 -207 rlineto
          endchar
        </CharString>
        <CharString name="daggerdbl">
          -22 -6 callgsubr
          201 60 377 60 202 -20 hstem
          193 65 -59 53 vstem
          40 504 rmoveto
          -71 vlineto
          157 11 5 -196 -5 -192 -157 11 rlineto
          -71 vlineto
          156 11 -5 -207 rlineto
          70 hlineto
          -5 206 156 -10 rlineto
          71 vlineto
          -158 -11 -4 193 5 195 157 -11 rlineto
          71 vlineto
          -156 -11 5 207 rlineto
          -70 hlineto
          5 -207 rlineto
          endchar
        </CharString>
        <CharString name="degree">
          -56 432 55 168 55 hstem
          70 56 166 56 vstem
          70 571 rmoveto
          -77 62 -62 77 77 62 62 77 77 -62 62 -77 -77 -62 -62 -77 vhcurveto
          56 hmoveto
          46 37 38 46 46 37 -38 -46 -46 -37 -38 -46 -46 -37 38 46 vhcurveto
          endchar
        </CharString>
        <CharString name="dieresis">
          -10 601 6 callsubr
          601 -99 callsubr
        </CharString>
        <CharString name="dieresis.cap">
          -10 801 6 callsubr
          -72 callgsubr
        </CharString>
        <CharString name="divide">
          106 96 136 87 63 87 136 hstem
          222 136 cntrmask 11100000
          40 382 -11 callgsubr
          vlineto
          -318 155 rmoveto
          -26 callgsubr
          -373 vmoveto
          -26 callgsubr
          endchar
        </CharString>
        <CharString name="dollar">
          45 -99 -21 110 60 600 60 90 -20 hstem
          70 63 107 50 106 68 vstem
          290 -120 rmoveto
          110 2 vlineto
          -96 callgsubr
          21 vlineto
          124 -89 39 -85 33 vhcurveto
          271 vlineto
          59 -3 47 -49 -60 vvcurveto
          -28 -31 callgsubr
          18 vlineto
          94 -76 76 -93 2 vhcurveto
          90 -50 -90 vlineto
          -94 -1 -76 -77 -94 vvcurveto
          -13 vlineto
          -123 85 -37 85 -31 vhcurveto
          -284 vlineto
          -60 2 -47 49 61 vvcurveto
          -54 callgsubr
          76 -76 94 -1 vhcurveto
          -110 vlineto
          161 303 rmoveto
          -21 vlineto
          -62 -50 -50 -61 vhcurveto
          265 vlineto
          61 -25 50 -32 -75 vvcurveto
          -268 342 rmoveto
          13 vlineto
          60 47 49 60 3 vhcurveto
          -251 vlineto
          -60 26 -47 31 69 vvcurveto
          endchar
        </CharString>
        <CharString name="dotaccent">
          -34 callsubr
        </CharString>
        <CharString name="dotaccentcmb">
          -34 callsubr
        </CharString>
        <CharString name="dotlessi">
          -3 callgsubr
          hstem
          80 60 vstem
          -19 callgsubr
          endchar
        </CharString>
        <CharString name="dotlessj">
          -14 callgsubr
          hstem
          80 60 vstem
          140 -53 -81 callgsubr
          endchar
        </CharString>
        <CharString name="e">
          -15 callgsubr
          hstem
          60 -70 callgsubr
          vstem
          394 -105 callgsubr
          -81 -66 -66 -81 hvcurveto
          -226 vlineto
          -81 66 -66 81 vhcurveto
          40 -28 callgsubr
          -60 155 rmoveto
          -214 74 hlineto
          -107 callsubr
          endchar
        </CharString>
        <CharString name="eacute">
          -15 callgsubr
          91 -21 120 -53 callgsubr
          hintmask 11100110
          394 -105 callgsubr
          -81 -66 -66 -81 hvcurveto
          -226 vlineto
          -81 66 -66 81 vhcurveto
          40 -28 callgsubr
          -60 155 rmoveto
          -214 74 hlineto
          -107 callsubr
          hintmask 00011000
          3 334 -103 callsubr
        </CharString>
        <CharString name="ecircumflex">
          7 0 101 -6 callsubr
        </CharString>
        <CharString name="edieresis">
          -15 callgsubr
          91 75 hstemhm
          60 60 -15 -9 callgsubr
          -35 60 hintmask 11101001
          394 -105 callgsubr
          -81 -66 -66 -81 hvcurveto
          -226 vlineto
          -81 66 -66 81 vhcurveto
          40 -28 callgsubr
          -60 155 rmoveto
          -214 74 hlineto
          -107 callsubr
          hintmask 00010110
          -154 235 -99 callsubr
        </CharString>
        <CharString name="egrave">
          17 0 101 -3 callsubr
        </CharString>
        <CharString name="eight">
          -35 callgsubr
          58 vlineto
          59 -30 52 -45 31 vhcurveto
          45 31 30 52 59 vvcurveto
          34 -104 callsubr
          -30 -94 callgsubr
          -34 vlineto
          -59 30 -52 45 -31 vhcurveto
          -45 -31 -30 -52 -59 vvcurveto
          -58 -63 callsubr
          -63 342 rmoveto
          -80 callgsubr
          34 -86 callgsubr
          24 -105 callsubr
          -376 vmoveto
          -80 callgsubr
          58 -86 callgsubr
          24 -105 callsubr
          endchar
        </CharString>
        <CharString name="ellipsis">
          251 0 75 hstem
          70 75 180 75 180 75 cntrmask 01110000
          145 18 callsubr
          330 18 callsubr
          330 hmoveto
          -82 callsubr
        </CharString>
        <CharString name="emdash">
          526 10 callsubr
          900 57 vlineto
          endchar
        </CharString>
        <CharString name="endash">
          76 10 callsubr
          450 57 vlineto
          endchar
        </CharString>
        <CharString name="equal">
          186 226 63 123 63 hstem
          80 475 -11 callgsubr
          vlineto
          -500 -186 -11 callgsubr
          vlineto
          endchar
        </CharString>
        <CharString name="eth">
          -10 -10 callgsubr
          190 16 callgsubr
          145 589 rmoveto
          9 -32 111 32 20 -29 15 -31 9 -33 rlinecurve
          9 -19 -21 5 -22 hhcurveto
          -57 callsubr
          81 66 66 81 hvcurveto
          226 vlineto
          92 -31 84 -45 65 vhcurveto
          96 28 -10 32 -107 -31 -23 27 -25 23 -26 17 rlinecurve
          -72 hlineto
          32 -23 33 -28 27 -32 rrcurveto
          91 -483 rmoveto
          -106 callgsubr
          endchar
        </CharString>
        <CharString name="exclam">
          -265 0 75 625 -20 hstemhm
          67 75 -69 62 hintmask 11010000
          149 700 rmoveto
          -89 hlineto
          27 -488 rlineto
          35 hlineto
          hintmask 11100000
          20 -212 rmoveto
          -82 callsubr
        </CharString>
        <CharString name="exclamdown">
          -265 -6 callgsubr
          625 75 hstemhm
          67 75 -69 62 hintmask 11010000
          122 288 rmoveto
          -35 hlineto
          -27 -488 rlineto
          89 hlineto
          hintmask 11100000
          -82 700 rmoveto
          -75 75 75 vlineto
          endchar
        </CharString>
        <CharString name="f">
          -187 21 -21 443 57 143 57 hstem
          100 60 vstem
          287 643 rmoveto
          57 -55 vlineto
          -73 -59 -59 -73 hvcurveto
          -68 -90 -57 90 -443 60 443 117 57 -117 71 vlineto
          40 32 32 40 vhcurveto
          endchar
        </CharString>
        <CharString name="five">
          40 -10 60 360 60 170 60 hstem
          70 63 -43 43 -39 callgsubr
          136 -104 callsubr
          -10 hlineto
          -45 -41 -17 -28 -30 hvcurveto
          23 215 rlineto
          240 60 -299 hlineto
          -40 -402 rlineto
          63 hlineto
          -91 callgsubr
          24 -105 callsubr
          -136 vlineto
          -80 callgsubr
          11 -63 -11 -63 callsubr
          endchar
        </CharString>
        <CharString name="florin">
          -107 -200 57 506 57 223 57 hstem
          94 -71 rmoveto
          -40 -5 -37 -32 -39 hhcurveto
          -43 -12 0 0 hvcurveto
          -8 -57 rlineto
          0 -21 0 76 72 68 59 73 10 vhcurveto
          60 431 rlineto
          117 hlineto
          8 57 rlineto
          -117 hlineto
          22 151 rlineto
          40 5 37 32 40 hhcurveto
          43 12 0 0 hvcurveto
          8 57 rlineto
          0 21 0 -76 -73 -68 -59 -73 -10 vhcurveto
          -21 -148 rlineto
          -90 hlineto
          -8 -57 rlineto
          90 hlineto
          endchar
        </CharString>
        <CharString name="foundryicon">
          382 2 -21 520 -20 239 -20 hstem
          60 183 370 183 vstem
          630 41 rmoveto
          -2 2 rlineto
          0 -12 -1 -7 -61 -52 25 57 58 57 239 2 10 vhcurveto
          11 6 72 15 22 hhcurveto
          9 8 -3 -9 hvcurveto
          -13 -59 -225 -56 vvcurveto
          -32 17 -19 31 61 74 117 133 205 -164 165 -205 -75 -68 -23 -37 -58 vhcurveto
          2 -3 rlineto
          0 12 2 7 61 52 -25 -57 -58 -57 -239 -2 -10 vhcurveto
          -11 -6 -72 -15 -22 hhcurveto
          -9 -8 3 8 hvcurveto
          14 59 225 56 vvcurveto
          32 -17 19 -31 -61 -74 -117 -133 -205 164 -165 203 74 70 23 37 59 vhcurveto
          -174 183 rmoveto
          -15 -19 -58 -10 -20 hhcurveto
          -10 -6 3 7 19 53 229 4 20 hvcurveto
          15 19 58 9 20 hhcurveto
          10 6 -2 -7 -19 -53 -229 -4 -20 hvcurveto
          endchar
        </CharString>
        <CharString name="four">
          30 21 -21 121 60 519 -20 hstem
          311 63 vstem
          434 121 rmoveto
          60 -60 519 -33 vlineto
          -311 -549 rlineto
          -30 281 -121 63 121 vlineto
          -63 60 rmoveto
          -193 hlineto
          193 347 rlineto
          endchar
        </CharString>
        <CharString name="fraction">
          -17 -60 callgsubr
          57 hmoveto
          -72 callsubr
          endchar
        </CharString>
        <CharString name="g">
          -200 57 162 57 102 57 218 57 -10 -20 hstemhm
          60 59 -50 50 -39 57 207 55 hintmask 1110110010000000
          399 -63 rmoveto
          2 vlineto
          81 -66 56 -81 vhcurveto
          -82 hlineto
          -28 -23 23 28 28 23 23 28 hvcurveto
          87 -28 callgsubr
          175 -20 vlineto
          -33 -51 rlineto
          hintmask 1111010010000000
          37 -27 -43 24 -49 hhcurveto
          -25 -77 callgsubr
          -38 vlineto
          -45 20 -40 31 -27 vhcurveto
          hintmask 1111001010000000
          -26 -19 -16 -32 -35 vvcurveto
          -39 20 -34 31 -19 vhcurveto
          hintmask 1111000110000000
          -25 -24 -15 -33 -39 vvcurveto
          -2 vlineto
          -81 66 -56 81 vhcurveto
          25 hlineto
          81 66 56 81 hvcurveto
          -55 385 rmoveto
          -99 callgsubr
          -50 hlineto
          -48 -39 -48 callgsubr
          44 vlineto
          -76 callsubr
          50 -100 callgsubr
          -2 -432 rmoveto
          -48 -39 -29 -48 vhcurveto
          -31 hlineto
          -48 -39 29 48 hvcurveto
          8 vlineto
          48 39 29 48 vhcurveto
          31 -46 callgsubr
          -29 -48 hvcurveto
          endchar
        </CharString>
        <CharString name="germandbls">
          40 0 57 288 57 251 57 hstem
          83 60 253 60 vstem
          230 hmoveto
          54 -83 callsubr
          50 -41 callsubr
          12 -104 callsubr
          -32 hlineto
          -95 -74 -77 -95 hvcurveto
          -538 60 541 -86 callgsubr
          29 -105 callsubr
          -27 vlineto
          -102 callgsubr
          -54 -57 54 -105 callsubr
          -64 vlineto
          -102 callgsubr
          -54 hlineto
          endchar
        </CharString>
        <CharString name="grave">
          -94 -5 callsubr
          235 580 2 callsubr
        </CharString>
        <CharString name="grave.cap">
          -94 -21 callgsubr
          235 780 2 callsubr
        </CharString>
        <CharString name="greater">
          13 callsubr
          60 161 rmoveto
          -69 vlineto
          500 223 rlineto
          71 vlineto
          -500 223 rlineto
          -69 vlineto
          428 -190 rlineto
          endchar
        </CharString>
        <CharString name="guillemotleft">
          -5 -12 callgsubr
          409 61 -67 callgsubr
          -145 20 -67 callgsubr
          endchar
        </CharString>
        <CharString name="guillemotright">
          -5 -48 callsubr
          185 -20 -67 callsubr
          endchar
        </CharString>
        <CharString name="guilsinglleft">
          -170 -12 callgsubr
          244 61 -67 callgsubr
          endchar
        </CharString>
        <CharString name="guilsinglright">
          -170 -48 callsubr
          endchar
        </CharString>
        <CharString name="h">
          17 callsubr
          190 16 callgsubr
          394 hmoveto
          -74 callsubr
        </CharString>
        <CharString name="hbar">
          17 callsubr
          70 50 70 -53 callgsubr
          hintmask 00100000
          630 vmoveto
          -50 301 50 vlineto
          hintmask 11011100
          93 -630 rmoveto
          -74 callsubr
        </CharString>
        <CharString name="hungarumlaut">
          62 580 120 hstem
          280 700 -101 callgsubr
          291 120 -103 callsubr
        </CharString>
        <CharString name="hyphen">
          -187 306 57 hstem
          237 306 rmoveto
          57 -187 -57 vlineto
          endchar
        </CharString>
        <CharString name="i">
          -3 callgsubr
          140 80 hstem
          80 60 vstem
          -31 callsubr
          endchar
        </CharString>
        <CharString name="iacute">
          -254 21 -21 500 -15 callsubr
          80 60 hintmask 11001000
          -19 callgsubr
          hintmask 00110000
          140 -58 callgsubr
        </CharString>
        <CharString name="icircumflex">
          -254 -120 0 245 -6 callsubr
        </CharString>
        <CharString name="idieresis">
          -3 callgsubr
          121 75 hstemhm
          -22 75 27 60 27 75 hintmask 11001000
          -19 callgsubr
          hintmask 00110100
          -27 601 -99 callsubr
        </CharString>
        <CharString name="igrave">
          -254 -100 0 245 -3 callsubr
        </CharString>
        <CharString name="ij">
          -34 -6 callgsubr
          221 -21 500 -20 140 80 hstemhm
          80 60 160 60 hintmask 01111000
          -31 callsubr
          hintmask 10110100
          285 -52 callgsubr
        </CharString>
        <CharString name="itilde">
          -3 callgsubr
          115 -36 callgsubr
          80 60 hintmask 11000100
          -19 callgsubr
          hintmask 00101000
          97 644 -93 callgsubr
        </CharString>
        <CharString name="j">
          -14 callgsubr
          140 80 hstem
          80 60 vstem
          145 -52 callgsubr
        </CharString>
        <CharString name="jcircumflex">
          -254 -179 -21 700 -15 callsubr
          80 60 hintmask 11001000
          140 -53 -81 callgsubr
          hintmask 00110000
          753 vmoveto
          -52 callsubr
        </CharString>
        <CharString name="k">
          21 -74 callgsubr
          endchar
        </CharString>
        <CharString name="kcommaaccent">
          -274 -21 316 -74 callgsubr
          195 -80 -81 callsubr
        </CharString>
        <CharString name="kgreenlandic">
          21 -21 500 -85 callgsubr
          500 -60 -500 vlineto
          endchar
        </CharString>
        <CharString name="l">
          -254 -22 callsubr
          60 7 callsubr
          endchar
        </CharString>
        <CharString name="ldot">
          -149 21 -21 320 75 305 -20 hstem
          80 60 80 75 7 callsubr
          215 320 rmoveto
          -82 callsubr
        </CharString>
        <CharString name="less">
          13 callsubr
          50 386 rmoveto
          -71 vlineto
          500 -223 rlineto
          69 vlineto
          -429 189 429 190 rlineto
          69 vlineto
          endchar
        </CharString>
        <CharString name="logicalnot">
          146 172 -21 168 63 hstem
          497 63 vstem
          60 382 rmoveto
          -63 437 -168 63 231 vlineto
          endchar
        </CharString>
        <CharString name="lslash">
          -188 21 -21 259 -21 177 -20 305 -20 hstemhm
          113 60 hintmask 01100000
          30 295 rmoveto
          -57 vlineto
          226 120 rlineto
          57 vlineto
          hintmask 10011000
          -83 -415 rmoveto
          -28 callsubr
          endchar
        </CharString>
        <CharString name="m">
          234 5 callsubr
          204 60 204 60 cntrmask 00011100
          hintmask 11011100
          648 -51 callsubr
          -5 hlineto
          -56 -49 -31 -46 -25 hvcurveto
          46 -24 -49 31 -56 hhcurveto
          -5 hlineto
          -36 callsubr
          hintmask 10111100
          -29 callsubr
          hintmask 11011100
          -76 callsubr
          30 -100 callgsubr
          -366 60 366 vlineto
          -76 callsubr
          30 -100 callgsubr
          -366 vlineto
          endchar
        </CharString>
        <CharString name="macron">
          19 601 48 hstem
          100 601 rmoveto
          293 48 -293 hlineto
          endchar
        </CharString>
        <CharString name="minus">
          106 319 63 hstem
          40 382 -11 callgsubr
          vlineto
          endchar
        </CharString>
        <CharString name="mu">
          -123 -21 134 20 callsubr
          500 -53 callgsubr
          hintmask 11011100
          60 -144 rmoveto
          60 163 hlineto
          -18 24 30 -11 33 hhcurveto
          15 hlineto
          49 43 24 37 27 hvcurveto
          hintmask 10111100
          33 -51 rlineto
          20 500 -60 -366 hlineto
          hintmask 11011100
          -107 callgsubr
          366 -60 vlineto
          endchar
        </CharString>
        <CharString name="multiply">
          110 130 -21 483 -20 hstem
          51 547 rmoveto
          196 -196 -197 -198 45 -44 197 197 197 -197 45 44 -197 198 196 196 -44 45 -197 -197 -197 197 rlineto
          endchar
        </CharString>
        <CharString name="n">
          5 callsubr
          214 60 hintmask 11011000
          394 hmoveto
          363 -45 callsubr
          hintmask 10111000
          -29 callsubr
          hintmask 11011000
          -68 callgsubr
          endchar
        </CharString>
        <CharString name="nacute">
          17 callsubr
          -10 -15 callsubr
          60 60 214 60 hintmask 11000110
          394 hmoveto
          363 -45 callsubr
          hintmask 10100110
          -29 callsubr
          hintmask 11000110
          -68 callgsubr
          hintmask 00011000
          3 -58 callgsubr
        </CharString>
        <CharString name="nine">
          40 -10 60 228 60 312 -7 callgsubr
          5 callgsubr
          95 -77 77 -95 vhcurveto
          -30 -94 callgsubr
          -88 vlineto
          -95 77 -46 callsubr
          10 hlineto
          51 46 23 35 32 hvcurveto
          -174 -57 callgsubr
          -63 288 rmoveto
          -80 callgsubr
          88 -86 callgsubr
          24 -105 callsubr
          endchar
        </CharString>
        <CharString name="ntilde">
          -27 0 110 196 endchar
        </CharString>
        <CharString name="numbersign">
          166 21 -21 178 50 244 50 178 -20 hstem
          157 59 -36 59 -37 59 117 59 -36 59 -37 59 vstem
          80 472 rmoveto
          110 hlineto
          -20 -244 rlineto
          -110 -50 105 2 callgsubr
          162 2 callgsubr
          115 50 -110 hlineto
          20 244 rlineto
          110 50 -105 0 callgsubr
          -162 0 callgsubr
          -115 hlineto
          169 -50 rmoveto
          162 hlineto
          -20 -244 rlineto
          -162 hlineto
          endchar
        </CharString>
        <CharString name="o">
          -10 -10 callgsubr
          hstem
          60 -70 callgsubr
          vstem
          394 -7 callsubr
          226 -98 callsubr
          -57 callsubr
          81 66 66 81 hvcurveto
          -60 -3 rmoveto
          -106 callgsubr
          endchar
        </CharString>
        <CharString name="oacute">
          -10 -10 callgsubr
          91 -21 120 -53 callgsubr
          hintmask 11001100
          394 -7 callsubr
          226 -98 callsubr
          -57 callsubr
          81 66 66 81 hvcurveto
          -60 -3 rmoveto
          -106 callgsubr
          hintmask 00110000
          3 334 -103 callsubr
        </CharString>
        <CharString name="ocircumflex">
          -3 0 111 -6 callsubr
        </CharString>
        <CharString name="odieresis">
          -5 0 111 200 endchar
        </CharString>
        <CharString name="oe">
          255 -15 callgsubr
          hstem
          60 60 214 61 214 60 cntrmask 00011100
          669 -105 callgsubr
          -48 -43 -24 -35 -27 hvcurveto
          35 -27 -42 24 -48 hhcurveto
          -57 callsubr
          48 42 23 36 27 hvcurveto
          -36 27 43 -23 48 -33 callsubr
          -335 -3 rmoveto
          -106 callgsubr
          275 -74 rmoveto
          -214 74 hlineto
          -107 callsubr
          endchar
        </CharString>
        <CharString name="ogonek">
          -126 -197 40 157 -20 hstem
          100 46 vstem
          141 hmoveto
          0 -41 -51 -61 vvcurveto
          -55 37 -30 46 40 25 26 0 vhcurveto
          35 vlineto
          0 -22 -21 -28 -32 -20 19 39 46 32 53 0 vhcurveto
          endchar
        </CharString>
        <CharString name="ograve">
          17 0 111 -3 callsubr
        </CharString>
        <CharString name="one">
          43 0 60 640 -20 hstem
          247 63 vstem
          477 hmoveto
          60 -167 640 -63 vlineto
          -167 -70 rlineto
          -60 vlineto
          167 70 rlineto
          -580 -167 -60 vlineto
          endchar
        </CharString>
        <CharString name="onehalf">
          233 0 47 317 -29 callgsubr
          252 188 -48 48 hintmask 11110100
          269 -44 callgsubr
          hintmask 11101100
          8 callgsubr
          hintmask 11110010
          -76 -47 hlineto
          476 -71 -59 callsubr
          hintmask 11110100
          -25 callgsubr
          -339 -293 rmoveto
          -72 callsubr
          endchar
        </CharString>
        <CharString name="onequarter">
          192 21 -21 58 43 263 -29 callgsubr
          331 44 hintmask 11111010
          596 58 -59 callgsubr
          -72 callsubr
          129 -44 callgsubr
          hintmask 11110110
          8 callgsubr
          hintmask 11111010
          -76 -47 hlineto
          endchar
        </CharString>
        <CharString name="onesuperior">
          -135 364 -29 callgsubr
          hintmask 11100000
          269 -44 callgsubr
          hintmask 11010000
          8 callgsubr
          hintmask 11100000
          -76 -47 hlineto
          endchar
        </CharString>
        <CharString name="ordfeminine">
          -124 270 38 74 44 107 38 89 44 hstem
          73 46 115 46 vstem
          280 388 rmoveto
          223 vlineto
          51 -41 42 -52 vhcurveto
          -21 hlineto
          -52 -41 -44 -53 hvcurveto
          46 -12 rlineto
          18 vlineto
          25 21 22 26 vhcurveto
          21 hlineto
          26 21 -22 -25 hvcurveto
          -42 -71 vlineto
          -52 -41 -41 -52 -54 41 -42 52 hvcurveto
          9 hlineto
          26 27 14 18 17 hvcurveto
          18 -26 rlineto
          -26 85 -8 callsubr
          13 vlineto
          26 21 21 26 vhcurveto
          71 hlineto
          -164 -263 14 callsubr
        </CharString>
        <CharString name="ordmasculine">
          -124 270 38 74 44 234 44 hstem
          70 46 118 46 vstem
          280 475 rmoveto
          136 vlineto
          51 -41 42 -52 vhcurveto
          -24 hlineto
          -52 -41 -42 -51 hvcurveto
          -136 vlineto
          -51 41 -42 52 vhcurveto
          24 hlineto
          52 41 42 51 hvcurveto
          -46 -2 -8 callsubr
          140 vlineto
          25 21 22 26 vhcurveto
          24 hlineto
          26 21 -22 -25 hvcurveto
          -164 -343 14 callsubr
        </CharString>
        <CharString name="oslash">
          -19 -10 57 -56 -21 483 57 20 -53 callgsubr
          hintmask 01101100
          83 -30 rmoveto
          32 52 rlineto
          hintmask 10011100
          -20 25 32 -12 35 -33 callsubr
          226 vlineto
          29 -9 27 -14 23 vhcurveto
          54 88 rlineto
          -53 hlineto
          -33 -53 rlineto
          20 -25 -32 13 -35 0 callsubr
          -30 8 -27 15 -23 vhcurveto
          hintmask 01101100
          -53 -87 rlineto
          90 164 1 callsubr
          24 22 -10 -16 16 hvcurveto
          -188 -308 rlineto
          -1 5 0 5 5 vvcurveto
          214 hmoveto
          hintmask 10101100
          -104 callgsubr
          -24 -22 9 16 -16 hvcurveto
          188 307 rlineto
          -4 1 -5 -4 vvcurveto
          endchar
        </CharString>
        <CharString name="otilde">
          -10 -10 callgsubr
          85 49 -27 -21 55 49 -60 callsubr
          hintmask 11000110
          394 -7 callsubr
          226 -98 callsubr
          -57 callsubr
          81 66 66 81 hvcurveto
          -60 -3 rmoveto
          -106 callgsubr
          hintmask 00101000
          -40 278 -93 callgsubr
        </CharString>
        <CharString name="p">
          -25 callsubr
          hintmask 11101100
          394 -7 callsubr
          226 -45 callsubr
          hintmask 11011100
          -33 51 rlineto
          -20 -700 60 242 hlineto
          -32 27 40 -20 45 hhcurveto
          15 -28 callgsubr
          -60 -3 rmoveto
          -69 callsubr
          hintmask 11101100
          -107 callsubr
          endchar
        </CharString>
        <CharString name="paragraph">
          90 -6 callgsubr
          840 60 hstem
          272 63 86 63 vstem
          335 640 rmoveto
          86 -840 63 900 -262 -94 callgsubr
          -47 vlineto
          -95 77 -46 callsubr
          50 -509 63 hlineto
          endchar
        </CharString>
        <CharString name="parenleft">
          -140 -22 callgsubr
          60 60 vstem
          60 292 rmoveto
          -217 88 -156 121 -119 vhcurveto
          35 35 rlineto
          -107 111 -77 159 187 vvcurveto
          187 77 159 107 111 vhcurveto
          -35 35 rlineto
          -121 -119 -88 -156 -217 vvcurveto
          endchar
        </CharString>
        <CharString name="parenright">
          -140 -22 callgsubr
          214 60 vstem
          274 292 rmoveto
          217 -88 156 -121 119 vhcurveto
          -35 -35 rlineto
          107 -111 77 -159 -187 vvcurveto
          -187 -77 -159 -107 -111 vhcurveto
          35 -35 rlineto
          121 119 88 156 217 vvcurveto
          endchar
        </CharString>
        <CharString name="percent">
          201 -4 47 -22 -21 293 47 20 -2 callgsubr
          159 48 92 48 hintmask 1011101111000000
          258 447 -86 callsubr
          395 -534 -86 callsubr
          hintmask 0111011111000000
          -391 -253 rmoveto
          -72 callsubr
          endchar
        </CharString>
        <CharString name="period">
          -259 0 -24 callsubr
          hmoveto
          -82 callsubr
        </CharString>
        <CharString name="periodcentered">
          -259 320 -24 callsubr
          320 rmoveto
          -82 callsubr
        </CharString>
        <CharString name="plus">
          106 121 -21 -5 callgsubr
          319 rmoveto
          218 -219 63 -16 callgsubr
          hlineto
          endchar
        </CharString>
        <CharString name="plusminus">
          106 37 63 -5 callgsubr
          100 -11 callgsubr
          -219 -16 callgsubr
          -63 218 -219 vlineto
          endchar
        </CharString>
        <CharString name="q">
          -25 callsubr
          hintmask 11011100
          394 -200 rmoveto
          -17 callgsubr
          vlineto
          -33 -51 rlineto
          hintmask 11101100
          37 -27 -43 24 -49 hhcurveto
          -15 -66 callgsubr
          15 hlineto
          45 40 20 32 27 hvcurveto
          -242 vlineto
          334 vmoveto
          -106 callgsubr
          endchar
        </CharString>
        <CharString name="question">
          -10 0 75 575 60 hstemhm
          50 63 49 75 -69 63 120 63 hintmask 11110100
          237 18 callsubr
          hintmask 11101100
          69 231 rmoveto
          133 183 -16 181 vvcurveto
          9 -104 callsubr
          -20 -94 callgsubr
          -18 vlineto
          63 -10 rlineto
          28 -86 callgsubr
          14 -105 callsubr
          -9 vlineto
          -149 -183 23 -172 vvcurveto
          -19 63 vlineto
          endchar
        </CharString>
        <CharString name="questiondown">
          -10 -210 60 575 75 hstemhm
          50 63 114 75 -69 63 55 63 hintmask 11110100
          227 500 rmoveto
          -75 75 75 vlineto
          hintmask 11101100
          -69 -231 rmoveto
          -133 -183 16 -181 vvcurveto
          -9 vlineto
          -95 77 -46 callsubr
          20 -30 callgsubr
          -14 -97 callgsubr
          9 vlineto
          149 183 -23 172 vvcurveto
          19 -63 vlineto
          endchar
        </CharString>
        <CharString name="quotedbl">
          -20 callsubr
          135 700 13 callgsubr
          145 215 13 callgsubr
          endchar
        </CharString>
        <CharString name="quotedblbase">
          -159 -119 -54 callsubr
          75 -30 callsubr
        </CharString>
        <CharString name="quotedblleft">
          -20 callsubr
          170 485 8 callsubr
          -170 -215 8 callsubr
          endchar
        </CharString>
        <CharString name="quotedblright">
          -20 callsubr
          145 700 -30 callsubr
        </CharString>
        <CharString name="quoteleft">
          -279 -4 callsubr
          70 485 8 callsubr
          endchar
        </CharString>
        <CharString name="quoteright">
          -35 callsubr
        </CharString>
        <CharString name="quotesinglbase">
          -34 callgsubr
        </CharString>
        <CharString name="quotesingle">
          -35 callsubr
        </CharString>
        <CharString name="r">
          -187 21 11 callgsubr
          hintmask 11010000
          -17 callsubr
          hintmask 10110000
          -37 callsubr
          356 hlineto
          hintmask 11010000
          -76 callsubr
          endchar
        </CharString>
        <CharString name="rcaron">
          -187 -76 0 114 207 endchar
        </CharString>
        <CharString name="rcommaaccent">
          -187 -274 -21 316 11 callgsubr
          hintmask 11101000
          -17 callsubr
          hintmask 11011000
          -37 callsubr
          356 hlineto
          hintmask 11101000
          -76 callsubr
          -72 -523 -81 callsubr
        </CharString>
        <CharString name="registered">
          346 -10 52 473 54 89 52 hstem
          50 56 187 56 142 56 167 -90 callgsubr
          449 -219 rmoveto
          -30 46 -41 67 -32 49 rrcurveto
          55 7 40 48 57 vvcurveto
          52 vlineto
          62 -50 50 -62 vhcurveto
          -142 -438 56 161 37 hlineto
          103 -161 rlineto
          2 274 rmoveto
          -33 -26 -26 -32 vhcurveto
          -84 169 84 hlineto
          32 26 -26 -32 hvcurveto
          endchar
        </CharString>
        <CharString name="ring">
          -67 560 -1 callsubr
          663 -91 callsubr
        </CharString>
        <CharString name="ring.cap">
          -67 772 -1 callsubr
          875 -91 callsubr
        </CharString>
        <CharString name="s">
          -15 -10 -10 callgsubr
          hstemhm
          60 60 -50 -70 callgsubr
          hintmask 11011000
          -84 callgsubr
          hintmask 11101000
          -41 callgsubr
          endchar
        </CharString>
        <CharString name="scaron">
          -10 -10 -10 callgsubr
          91 3 callsubr
          60 60 -50 -70 callgsubr
          hintmask 11000110
          -84 callgsubr
          hintmask 11001010
          -41 callgsubr
          hintmask 00110000
          -42 573 -92 callgsubr
        </CharString>
        <CharString name="section">
          50 -210 60 800 60 hstemhm
          60 63 -53 -75 callgsubr
          hintmask 11011000
          70 525 rmoveto
          -41 9 -31 16 -25 vhcurveto
          -16 -27 -9 -30 -33 vvcurveto
          -65 callsubr
          hintmask 11101000
          -62 -55 -66 callsubr
          82 -46 callsubr
          50 hlineto
          95 82 77 95 hvcurveto
          21 vlineto
          39 -9 30 -15 25 vhcurveto
          15 25 9 29 31 vvcurveto
          21 vlineto
          hintmask 11011000
          240 -331 -79 181 vvcurveto
          13 -86 callgsubr
          39 -95 callsubr
          -45 -94 callgsubr
          331 -376 rmoveto
          -13 -3 -11 -4 -11 vhcurveto
          -97 72 -164 -2 128 vvcurveto
          13 vlineto
          15 3 15 6 13 vhcurveto
          97 -67 162 4 -135 vvcurveto
          endchar
        </CharString>
        <CharString name="semicolon">
          -259 -119 -21 565 -24 callsubr
          425 -53 callsubr
          75 -350 -81 callsubr
        </CharString>
        <CharString name="seven">
          40 21 -21 640 19 callsubr
          vstem
          464 670 rmoveto
          30 -384 -153 63 93 243 vlineto
          -262 -640 rlineto
          66 hlineto
          endchar
        </CharString>
        <CharString name="six">
          40 -10 60 312 60 228 -7 callgsubr
          88 -104 callsubr
          -10 hlineto
          -51 -46 -23 -35 -32 hvcurveto
          174 -86 callgsubr
          24 -95 callsubr
          -30 -97 callsubr
          30 -98 callgsubr
          -24 hlineto
          -62 -50 50 62 hvcurveto
          88 -86 callgsubr
          24 -105 callsubr
          endchar
        </CharString>
        <CharString name="slash">
          -92 -39 -21 820 -20 hstem
          83 -60 rmoveto
          279 820 rlineto
          -63 hlineto
          -279 -820 rlineto
          endchar
        </CharString>
        <CharString name="space">
          -244 endchar
        </CharString>
        <CharString name="sterling">
          67 0 60 225 50 315 60 hstem
          110 63 6 63 163 63 vstem
          60 335 rmoveto
          -50 103 vlineto
          9 -37 7 -37 -39 vvcurveto
          -62 -40 -50 -62 vhcurveto
          -17 -60 411 60 -266 hlineto
          23 30 14 39 43 vvcurveto
          40 -6 37 -8 36 vhcurveto
          153 50 -166 hlineto
          -20 68 -22 63 72 vvcurveto
          -91 callgsubr
          8 -95 callsubr
          -14 hlineto
          -95 -77 -77 -95 -76 20 -64 18 -63 hvcurveto
          endchar
        </CharString>
        <CharString name="t">
          -127 18 callgsubr
          130 -20 hstemhm
          110 60 -60 187 hintmask 11101000
          297 hmoveto
          57 -55 vlineto
          hintmask 11110000
          -40 -32 32 40 40 0 274 0 hvcurveto
          hintmask 11101000
          127 57 hlineto
          hintmask 11110000
          -127 130 hlineto
          -60 -10 rlineto
          -120 -90 -57 90 vlineto
          0 0 -238 -73 vvcurveto
          -73 59 -59 73 vhcurveto
          endchar
        </CharString>
        <CharString name="thorn">
          -179 -21 190 -68 callsubr
          -900 60 242 vlineto
          -32 27 40 -20 45 hhcurveto
          15 -28 callgsubr
          -60 -3 rmoveto
          -106 callgsubr
          endchar
        </CharString>
        <CharString name="three">
          -35 callgsubr
          48 -41 callsubr
          24 -104 callsubr
          -30 -94 callgsubr
          -18 vlineto
          63 -10 rlineto
          28 -86 callgsubr
          24 -105 callsubr
          -34 vlineto
          -102 callgsubr
          -47 -60 47 -105 callsubr
          -58 -57 callgsubr
          endchar
        </CharString>
        <CharString name="threequarters">
          192 21 -21 58 43 259 -2 callgsubr
          267 44 hintmask 11110111
          -102 callsubr
          338 -389 -59 callgsubr
          hintmask 11101111
          -72 callsubr
          endchar
        </CharString>
        <CharString name="threesuperior">
          -146 360 47 250 47 hstem
          70 48 92 48 vstem
          -102 callsubr
          endchar
        </CharString>
        <CharString name="tilde">
          35 595 -36 callgsubr
          hintmask 10100000
          321 644 -70 callsubr
        </CharString>
        <CharString name="tilde.cap">
          48 795 -36 callgsubr
          hintmask 10100000
          321 844 -70 callsubr
        </CharString>
        <CharString name="trademark">
          246 391 -21 284 46 hstem
          140 52 148 52 207 51 vstem
          650 370 rmoveto
          330 -30 vlineto
          -125 -253 -124 253 rlineto
          -31 -330 52 184 hlineto
          90 -184 rlineto
          27 hlineto
          90 185 rlineto
          -185 vlineto
          -307 284 rmoveto
          46 -252 -46 100 -284 52 284 vlineto
          endchar
        </CharString>
        <CharString name="two">
          20 0 60 590 60 hstem
          55 63 -18 callsubr
          254 650 rmoveto
          58 54 -40 -82 -222 -326 -256 0 hvcurveto
          -50 394 60 -295 vlineto
          0 290 247 221 vvcurveto
          111 -77 71 -95 vhcurveto
          -30 -94 callgsubr
          -18 vlineto
          63 -10 rlineto
          28 -86 callgsubr
          endchar
        </CharString>
        <CharString name="twosuperior">
          -136 364 47 293 -20 hstemhm
          77 188 -48 48 hintmask 11010000
          177 657 -59 callsubr
          hintmask 11100000
          -25 callgsubr
          endchar
        </CharString>
        <CharString name="u">
          -10 callsubr
          500 -53 callgsubr
          hintmask 01111000
          -19 callsubr
          hintmask 10111000
          -85 callsubr
          hintmask 01111000
          33 -51 rlineto
          endchar
        </CharString>
        <CharString name="uacute">
          -10 callsubr
          500 -15 callsubr
          60 60 214 60 hintmask 01100110
          -19 callsubr
          hintmask 10100110
          -85 callsubr
          hintmask 01100110
          33 -51 rlineto
          hintmask 00011000
          -17 -58 callgsubr
        </CharString>
        <CharString name="ucircumflex">
          -3 0 117 -6 callsubr
        </CharString>
        <CharString name="udieresis">
          -10 callsubr
          500 4 callgsubr
          60 60 -25 -9 callgsubr
          -25 60 hintmask 01101001
          -19 callsubr
          hintmask 10101001
          -85 callsubr
          hintmask 01101001
          33 -51 rlineto
          hintmask 00010110
          -204 601 -99 callsubr
        </CharString>
        <CharString name="ugrave">
          -3 0 117 -3 callsubr
        </CharString>
        <CharString name="underscore">
          74 -200 57 hstem
          -1 -143 rmoveto
          -57 550 57 vlineto
          endchar
        </CharString>
        <CharString name="uni00A0">
          -244 endchar
        </CharString>
        <CharString name="v">
          -70 -12 callsubr
          hstem
          -73 callsubr
          177 -500 rlineto
          30 hlineto
          endchar
        </CharString>
        <CharString name="w">
          184 -12 callsubr
          hstem
          648 500 rmoveto
          -61 hlineto
          -119 -378 -27 callgsubr
          -117 378 rlineto
          -36 hlineto
          -117 -378 -27 callgsubr
          -119 378 rlineto
          -61 hlineto
          167 -500 rlineto
          33 hlineto
          117 377 2 26 2 -26 117 -377 rlineto
          33 hlineto
          endchar
        </CharString>
        <CharString name="x">
          -50 -12 callsubr
          hstem
          384 hmoveto
          -140 250 140 250 rlineto
          -65 hlineto
          -107 -192 -107 192 rlineto
          -65 hlineto
          140 -250 -140 -250 rlineto
          65 hlineto
          107 192 107 -192 rlineto
          endchar
        </CharString>
        <CharString name="y">
          -80 -13 callsubr
          hstem
          -58 callsubr
          endchar
        </CharString>
        <CharString name="yacute">
          -80 47 0 121 194 endchar
        </CharString>
        <CharString name="ydieresis">
          -80 -13 callsubr
          121 75 hstemhm
          75 -9 callgsubr
          hintmask 11000000
          -58 callsubr
          hintmask 00111000
          9 -72 callgsubr
        </CharString>
        <CharString name="yen">
          -10 21 -21 182 50 65 50 353 -20 hstem
          201 63 vstem
          60 347 rmoveto
          -50 141 -65 -141 -50 141 -182 63 182 140 50 -140 65 140 50 -134 vlineto
          174 353 rlineto
          -8 callgsubr
          174 -353 rlineto
          endchar
        </CharString>
        <CharString name="z">
          -60 18 callgsubr
          hstem
          -45 callgsubr
          endchar
        </CharString>
        <CharString name="zcaron">
          -60 18 callgsubr
          101 3 callsubr
          hintmask 11000000
          -45 callgsubr
          hintmask 00110000
          297 700 -92 callgsubr
        </CharString>
        <CharString name="zero">
          40 -10 60 600 -40 callgsubr
          5 callgsubr
          95 -77 77 -95 vhcurveto
          -30 -97 callsubr
          30 -98 callgsubr
          -24 hlineto
          -62 -50 50 62 hvcurveto
          17 callgsubr
          24 -105 callsubr
          endchar
        </CharString>
      <CharString index="0">
        -104 callgsubr
        -48 -39 -48 callgsubr
        return
      </CharString>
      <CharString index="1">
        -69 callsubr
        -107 callsubr
        return
      </CharString>
      <CharString index="2">
        -95 callgsubr
        111 274 118 -98 callsubr
        -40 hlineto
        return
      </CharString>
      <CharString index="3">
        -99 callgsubr
        -40 hlineto
        return
      </CharString>
      <CharString index="4">
        482 hmoveto
        -190 299 rlineto
        -96 callgsubr
        57 -71 callgsubr
        63 299 86 hlineto
        190 -299 rlineto
        -8 471 rmoveto
        -56 callgsubr
        return
      </CharString>
      <CharString index="5">
        -62 -50 -50 -62 vhcurveto
        return
      </CharString>
      <CharString index="6">
        rmoveto
        -100 hlineto
        -80 -120 rlineto
        45 hlineto
        return
      </CharString>
      <CharString index="7">
        -46 callgsubr
        -39 -48 hvcurveto
        return
      </CharString>
      <CharString index="8">
        -48 -39 -39 -48 vhcurveto
        return
      </CharString>
      <CharString index="9">
        -47 callsubr
        hmoveto
        -102 callgsubr
        return
      </CharString>
      <CharString index="10">
        hlineto
        -62 -50 50 62 hvcurveto
        return
      </CharString>
      <CharString index="11">
        95 77 77 95 hvcurveto
        return
      </CharString>
      <CharString index="12">
        -7 callsubr
        20 vlineto
        -60 10 rlineto
        -33 vlineto
        -107 callgsubr
        return
      </CharString>
      <CharString index="13">
        hlineto
        -95 -77 -77 -95 hvcurveto
        return
      </CharString>
      <CharString index="14">
        -42 callgsubr
        hintmask 00011000
        -87 callgsubr
        hintmask 00101000
        -101 callsubr
      </CharString>
      <CharString index="15">
        10 callgsubr
        -70 -80 -70 80 rlineto
        -60 hlineto
        100 -120 rlineto
        60 hlineto
        endchar
      </CharString>
      <CharString index="16">
        -80 callsubr
        vhcurveto
        return
      </CharString>
      <CharString index="17">
        56 vstem
        50 350 rmoveto
        -199 161 -161 199 199 161 161 199 199 -161 161 -199 -199 -161 -161 -199 vhcurveto
        56 hmoveto
        171 133 137 171 171 133 -33 callgsubr
        -33 callgsubr
        137 171 vhcurveto
        return
      </CharString>
      <CharString index="18">
        -21 299 60 281 15 callsubr
        -103 callgsubr
        return
      </CharString>
      <CharString index="19">
        464 183 rmoveto
        240 -331 -79 181 vvcurveto
        13 -86 callgsubr
        39 -95 callsubr
        -45 -94 callgsubr
        -65 callsubr
        return
      </CharString>
      <CharString index="20">
        -60 -29 -46 -58 hvcurveto
        46 hlineto
        32 14 23 27 vhcurveto
        return
      </CharString>
      <CharString index="21">
        vlineto
        -91 callgsubr
        return
      </CharString>
      <CharString index="22">
        -20 hstem
        80 60 vstem
        434 hmoveto
        -209 250 209 250 rlineto
        -78 hlineto
        -204 -250 204 -250 rlineto
        -216 hmoveto
        return
      </CharString>
      <CharString index="23">
        404 127 rmoveto
        191 -274 -79 137 vvcurveto
        48 39 29 12 callsubr
        -15 vlineto
        60 10 rlineto
        2 -98 callsubr
        -35 hlineto
        -81 -66 -56 -81 hvcurveto
        -191 274 85 -143 vvcurveto
        -48 -44 -29 -48 vhcurveto
        -40 hlineto
        return
      </CharString>
      <CharString index="24">
        -71 callsubr
        49 43 24 return
      </CharString>
      <CharString index="25">
        -92 callsubr
        -38 -31 callgsubr
        28 -100 callsubr
        return
      </CharString>
      <CharString index="26">
        rmoveto
        553 -60 -556 vlineto
        -99 callgsubr
        -57 vlineto
        -84 callsubr
        return
      </CharString>
      <CharString index="27">
        -102 callgsubr
        -24 -97 callgsubr
        return
      </CharString>
      <CharString index="28">
        30 24 25 29 30 24 -25 -30 -29 -24 -25 -30 -29 -24 25 29 vhcurveto
        endchar
      </CharString>
      <CharString index="29">
        -27 callsubr
        538 -63 -538 vlineto
        -102 callgsubr
        return
      </CharString>
      <CharString index="30">
        hlineto
        -90 callsubr
        return
      </CharString>
      <CharString index="31">
        -98 callsubr
        -15 hlineto
        -45 -40 -20 -32 -27 hvcurveto
        242 -60 return
      </CharString>
      <CharString index="32">
        63 268 63 return
      </CharString>
      <CharString index="33">
        -21 500 -20 220 -85 callgsubr
        -28 callsubr
        return
      </CharString>
      <CharString index="34">
        -78 callgsubr
        -14 hlineto
        -62 -50 -66 callsubr
        77 -46 callsubr
        20 -83 callsubr
        endchar
      </CharString>
      <CharString index="35">
        801 -99 callsubr
      </CharString>
      <CharString index="36">
        -104 callsubr
        -222 -700 return
      </CharString>
      <CharString index="37">
        60 214 60 return
      </CharString>
      <CharString index="38">
        -98 callgsubr
        -156 return
      </CharString>
      <CharString index="39">
        -107 callsubr
        -366 vlineto
        return
      </CharString>
      <CharString index="40">
        rmoveto
        -122 167 122 167 -20 20 -184 -187 184 -187 rlineto
        return
      </CharString>
      <CharString index="41">
        -77 callgsubr
        -226 vlineto
        -81 66 -38 callgsubr
        return
      </CharString>
      <CharString index="42">
        -75 callgsubr
        vstem
        return
      </CharString>
      <CharString index="43">
        vlineto
        22 18 18 23 vhcurveto
        10 hlineto
        23 18 -18 -22 hvcurveto
        return
      </CharString>
      <CharString index="44">
        vlineto
        47 -38 40 -49 vhcurveto
        -14 hlineto
        -49 -38 -40 -47 hvcurveto
        return
      </CharString>
      <CharString index="45">
        -83 callgsubr
        36 27 hvcurveto
        return
      </CharString>
      <CharString index="46">
        -50 -62 hvcurveto
        return
      </CharString>
      <CharString index="47">
        -49 callsubr
        hstem
        return
      </CharString>
      <CharString index="48">
        rmoveto
        43 -27 234 -28 vlineto
        -143 -254 rlineto
        -23 127 -58 44 58 vlineto
        -44 43 rmoveto
        -65 hlineto
        65 118 rlineto
        -329 -219 rmoveto
        return
      </CharString>
      <CharString index="49">
        700 -103 callsubr
      </CharString>
      <CharString index="50">
        vlineto
        -80 callgsubr
        28 vlineto
        -63 -10 rlineto
        -18 -63 callsubr
        return
      </CharString>
      <CharString index="51">
        -37 callgsubr
        281 -78 callsubr
        return
      </CharString>
      <CharString index="52">
        -21 callsubr
        -10 hlineto
        -23 -18 18 22 hvcurveto
        return
      </CharString>
      <CharString index="53">
        38 vlineto
        -63 -10 rlineto
        -28 vlineto
        -95 return
      </CharString>
      <CharString index="54">
        -20 -60 callsubr
        return
      </CharString>
      <CharString index="55">
        -32 callgsubr
        -673 -81 callgsubr
        endchar
      </CharString>
      <CharString index="56">
        hstem
        80 -65 callgsubr
        474 return
      </CharString>
      <CharString index="57">
        -21 120 -20 return
      </CharString>
      <CharString index="58">
        -21 215 -20 hstem
        return
      </CharString>
      <CharString index="59">
        39 48 hvcurveto
        return
      </CharString>
      <CharString index="60">
        hstem
        70 -65 callgsubr
        return
      </CharString>
      <CharString index="61">
        hlineto
        48 39 return
      </CharString>
      <CharString index="62">
        374 hmoveto
        57 -252 vlineto
        252 416 rlineto
        27 -324 -57 242 vlineto
        -252 -416 rlineto
        -27 vlineto
        return
      </CharString>
      <CharString index="63">
        364 rmoveto
        47 -75 289 -39 vlineto
        -85 -35 rlineto
        -49 vlineto
        return
      </CharString>
      <CharString index="64">
        -10 callsubr
        242 47 164 57 return
      </CharString>
      <CharString index="65">
        rmoveto
        -46 -28 56 -58 hhcurveto
        return
      </CharString>
      <CharString index="66">
        -48 -44 -48 callgsubr
        33 vlineto
        -60 -10 rlineto
        -20 vlineto
        -81 71 -38 callgsubr
        40 hlineto
        81 71 56 81 hvcurveto
        return
      </CharString>
      <CharString index="67">
        60 hstem
        70 63 -39 callgsubr
        return
      </CharString>
      <CharString index="68">
        -18 callsubr
        444 -27 callsubr
        return
      </CharString>
      <CharString index="69">
        -66 81 vhcurveto
        return
      </CharString>
      <CharString index="70">
        -102 callgsubr
        -156 return
      </CharString>
      <CharString index="71">
        49 -27 -21 55 49 hstemhm
        return
      </CharString>
      <CharString index="72">
        40 -10 60 282 60 258 -40 callgsubr
        return
      </CharString>
      <CharString index="73">
        -259 -119 -54 callsubr
        75 -81 callsubr
      </CharString>
      <CharString index="74">
        -137 -171 -171 -133 return
      </CharString>
      <CharString index="75">
        620 rmoveto
        80 -70 -80 vlineto
        65 return
      </CharString>
      <CharString index="76">
        vlineto
        63 10 rlineto
        return
      </CharString>
      <CharString index="77">
        -83 callsubr
        18 vlineto
        -63 10 rlineto
        -28 vlineto
        -102 callgsubr
        return
      </CharString>
      <CharString index="78">
        47 289 -20 hstemhm
        70 124 -48 48 return
      </CharString>
      <CharString index="79">
        hlineto
        -84 callsubr
        return
      </CharString>
      <CharString index="80">
        -2 -26 -2 26 return
      </CharString>
      <CharString index="81">
        -37 31 -31 37 37 31 31 37 37 -31 31 -37 -37 -31 -31 -37 vhcurveto
        return
      </CharString>
      <CharString index="82">
        -47 -40 -39 -49 hvcurveto
        -17 vlineto
        48 -6 rlineto
        23 vlineto
        23 18 18 23 vhcurveto
        return
      </CharString>
      <CharString index="83">
        -78 callsubr
        endchar
      </CharString>
      <CharString index="84">
        hmoveto
        -43 callsubr
        return
      </CharString>
      <CharString index="85">
        -6 callgsubr
        984 -20 hstem
        return
      </CharString>
      <CharString index="86">
        801 -50 callgsubr
        hstem
        return
      </CharString>
      <CharString index="87">
        -700 vlineto
        return
      </CharString>
      <CharString index="88">
        140 -23 callgsubr
        return
      </CharString>
      <CharString index="89">
        60 -268 640 -63 -20 callgsubr
        return
      </CharString>
      <CharString index="90">
        700 -20 return
      </CharString>
      <CharString index="91">
        219 219 63 -219 218 -63 -218 -218 return
      </CharString>
      <CharString index="92">
        -10 57 198 47 161 57 return
      </CharString>
      <CharString index="93">
        -254 -13 callsubr
        return
      </CharString>
      <CharString index="94">
        -10 21 -21 163 60 return
      </CharString>
      <CharString index="95">
        62 -21 374 -20 hstem
        return
      </CharString>
      <CharString index="96">
        rmoveto
        -63 500 63 return
      </CharString>
      <CharString index="97">
        57 406 57 return
      </CharString>
      <CharString index="98">
        75 114 75 return
      </CharString>
      <CharString index="99">
        -68 hlineto
        -144 -291 -144 291 rlineto
        -68 hlineto
        return
      </CharString>
      <CharString index="100">
        19 callsubr
        -18 callsubr
        454 -27 callsubr
        return
      </CharString>
      <CharString index="101">
        -179 -21 return
      </CharString>
      <CharString index="102">
        219 63 218 -20 hstem
        258 63 vstem
        40 return
      </CharString>
      <CharString index="103">
        33 -50 -11 callsubr
        return
      </CharString>
      <CharString index="104">
        -254 -12 callsubr
        return
      </CharString>
      <CharString index="105">
        47 250 47 -4 -20 hstemhm
        70 48 92 48 return
      </CharString>
      <CharString index="106" raw="1">
        700af80c 230a0b  
      </CharString>
      <CharString index="107">
        3 callgsubr
        -59 hlineto
        -15 -178 rlineto
        return
      </CharString>
      <CharString index="108">
        hhcurveto
        -50 -94 callgsubr
        -376 vlineto
        return
      </CharString>
      <CharString index="109">
        hlineto
        -15 -178 rlineto
        59 3 callgsubr
        return
      </CharString>
      <CharString index="110">
        hlineto
        15 178 rlineto
        return
      </CharString>
      <CharString index="111">
        -20 121 75 hstemhm
        return
      </CharString>
      <CharString index="112">
        376 vlineto
        return
      </CharString>
      <CharString index="113">
        -20 -51 callgsubr
        return
      </CharString>
      <CharString index="114">
        -21 120 -20 9 callgsubr
        return
      </CharString>
      <CharString index="115">
        76 32 rlineto
        -237 vlineto
        return
      </CharString>
      <CharString index="116">
        hstemhm
        -32 callsubr
        return
      </CharString>
      <CharString index="117">
        rmoveto
        -60 hlineto
        return
      </CharString>
      <CharString index="118">
        -21 443 67 19 callgsubr
        return
      </CharString>
      <CharString index="119">
        -6 callgsubr
        190 -10 callgsubr
        return
      </CharString>
      <CharString index="120">
        rmoveto
        -75 hlineto
        25 -215 rlineto
        25 hlineto
        return
      </CharString>
      <CharString index="121">
        -165 -200 54 876 54 hstemhm
        return
      </CharString>
      <CharString index="122">
        -700 rlineto
        return
      </CharString>
      <CharString index="123">
        -20 hstem
        60 -70 callgsubr
        vstem
        return
      </CharString>
      <CharString index="124">
        376 -86 callgsubr
        return
      </CharString>
      <CharString index="125">
        0 57 386 57 return
      </CharString>
      <CharString index="126">
        -10 -20 hstemhm
        60 60 return
      </CharString>
      <CharString index="127">
        60 260 return
      </CharString>
</ttFont>
